M48
; DRILL file {KiCad 5.1.7-a382d34a8~87~ubuntu20.04.1} date Tue Nov 17 21:36:10 2020
; FORMAT={-:-/ absolute / inch / decimal}
; #@! TF.CreationDate,2020-11-17T21:36:10+01:00
; #@! TF.GenerationSoftware,Kicad,Pcbnew,5.1.7-a382d34a8~87~ubuntu20.04.1
; #@! TF.FileFunction,Plated,1,2,PTH
FMAT,2
INCH
T1C0.0157
T2C0.0236
T3C0.0472
%
G90
G05
T1
X0.91Y-1.38
X0.98Y-1.325
X1.07Y-1.32
X1.075Y-1.43
X1.095Y-1.23
X1.13Y-1.49
X1.26Y-1.53
X1.34Y-1.175
X1.4659Y-1.0091
X1.5Y-1.19
T3
X0.745Y-1.0139
X0.745Y-1.26
X0.8434Y-1.0139
X0.9419Y-1.0139
X0.9419Y-1.26
X1.915Y-1.14
X2.065Y-1.14
T2
G00X1.2648Y-0.9172
M15
G01X1.2648Y-0.8936
M16
G05
G00X1.2648Y-1.0917
M15
G01X1.2648Y-1.0483
M16
G05
G00X1.605Y-0.9172
M15
G01X1.605Y-0.8936
M16
G05
G00X1.605Y-1.0917
M15
G01X1.605Y-1.0483
M16
G05
T0
M30
