G04 #@! TF.GenerationSoftware,KiCad,Pcbnew,5.1.7-a382d34a8~87~ubuntu20.04.1*
G04 #@! TF.CreationDate,2020-11-17T21:36:07+01:00*
G04 #@! TF.ProjectId,Microscope_LED,4d696372-6f73-4636-9f70-655f4c45442e,rev?*
G04 #@! TF.SameCoordinates,Original*
G04 #@! TF.FileFunction,Soldermask,Top*
G04 #@! TF.FilePolarity,Negative*
%FSLAX46Y46*%
G04 Gerber Fmt 4.6, Leading zero omitted, Abs format (unit mm)*
G04 Created by KiCad (PCBNEW 5.1.7-a382d34a8~87~ubuntu20.04.1) date 2020-11-17 21:36:07*
%MOMM*%
%LPD*%
G01*
G04 APERTURE LIST*
%ADD10O,1.102000X2.202000*%
%ADD11C,0.752000*%
%ADD12O,1.102000X1.702000*%
%ADD13O,1.902000X3.702000*%
%ADD14C,3.302000*%
%ADD15C,2.102000*%
%ADD16C,0.100000*%
G04 APERTURE END LIST*
G36*
G01*
X28675000Y-24794172D02*
X28675000Y-25751828D01*
G75*
G02*
X28402828Y-26024000I-272172J0D01*
G01*
X27695172Y-26024000D01*
G75*
G02*
X27423000Y-25751828I0J272172D01*
G01*
X27423000Y-24794172D01*
G75*
G02*
X27695172Y-24522000I272172J0D01*
G01*
X28402828Y-24522000D01*
G75*
G02*
X28675000Y-24794172I0J-272172D01*
G01*
G37*
G36*
G01*
X30725000Y-24794172D02*
X30725000Y-25751828D01*
G75*
G02*
X30452828Y-26024000I-272172J0D01*
G01*
X29745172Y-26024000D01*
G75*
G02*
X29473000Y-25751828I0J272172D01*
G01*
X29473000Y-24794172D01*
G75*
G02*
X29745172Y-24522000I272172J0D01*
G01*
X30452828Y-24522000D01*
G75*
G02*
X30725000Y-24794172I0J-272172D01*
G01*
G37*
G36*
G01*
X28684000Y-26826172D02*
X28684000Y-27783828D01*
G75*
G02*
X28411828Y-28056000I-272172J0D01*
G01*
X27704172Y-28056000D01*
G75*
G02*
X27432000Y-27783828I0J272172D01*
G01*
X27432000Y-26826172D01*
G75*
G02*
X27704172Y-26554000I272172J0D01*
G01*
X28411828Y-26554000D01*
G75*
G02*
X28684000Y-26826172I0J-272172D01*
G01*
G37*
G36*
G01*
X30734000Y-26826172D02*
X30734000Y-27783828D01*
G75*
G02*
X30461828Y-28056000I-272172J0D01*
G01*
X29754172Y-28056000D01*
G75*
G02*
X29482000Y-27783828I0J272172D01*
G01*
X29482000Y-26826172D01*
G75*
G02*
X29754172Y-26554000I272172J0D01*
G01*
X30461828Y-26554000D01*
G75*
G02*
X30734000Y-26826172I0J-272172D01*
G01*
G37*
G36*
G01*
X33548000Y-27368000D02*
X33548000Y-28818000D01*
G75*
G02*
X33497000Y-28869000I-51000J0D01*
G01*
X32897000Y-28869000D01*
G75*
G02*
X32846000Y-28818000I0J51000D01*
G01*
X32846000Y-27368000D01*
G75*
G02*
X32897000Y-27317000I51000J0D01*
G01*
X33497000Y-27317000D01*
G75*
G02*
X33548000Y-27368000I0J-51000D01*
G01*
G37*
G36*
G01*
X34348000Y-27368000D02*
X34348000Y-28818000D01*
G75*
G02*
X34297000Y-28869000I-51000J0D01*
G01*
X33697000Y-28869000D01*
G75*
G02*
X33646000Y-28818000I0J51000D01*
G01*
X33646000Y-27368000D01*
G75*
G02*
X33697000Y-27317000I51000J0D01*
G01*
X34297000Y-27317000D01*
G75*
G02*
X34348000Y-27368000I0J-51000D01*
G01*
G37*
G36*
G01*
X39248000Y-27368000D02*
X39248000Y-28818000D01*
G75*
G02*
X39197000Y-28869000I-51000J0D01*
G01*
X38597000Y-28869000D01*
G75*
G02*
X38546000Y-28818000I0J51000D01*
G01*
X38546000Y-27368000D01*
G75*
G02*
X38597000Y-27317000I51000J0D01*
G01*
X39197000Y-27317000D01*
G75*
G02*
X39248000Y-27368000I0J-51000D01*
G01*
G37*
G36*
G01*
X40048000Y-27368000D02*
X40048000Y-28818000D01*
G75*
G02*
X39997000Y-28869000I-51000J0D01*
G01*
X39397000Y-28869000D01*
G75*
G02*
X39346000Y-28818000I0J51000D01*
G01*
X39346000Y-27368000D01*
G75*
G02*
X39397000Y-27317000I51000J0D01*
G01*
X39997000Y-27317000D01*
G75*
G02*
X40048000Y-27368000I0J-51000D01*
G01*
G37*
G36*
G01*
X40048000Y-27368000D02*
X40048000Y-28818000D01*
G75*
G02*
X39997000Y-28869000I-51000J0D01*
G01*
X39397000Y-28869000D01*
G75*
G02*
X39346000Y-28818000I0J51000D01*
G01*
X39346000Y-27368000D01*
G75*
G02*
X39397000Y-27317000I51000J0D01*
G01*
X39997000Y-27317000D01*
G75*
G02*
X40048000Y-27368000I0J-51000D01*
G01*
G37*
G36*
G01*
X39248000Y-27368000D02*
X39248000Y-28818000D01*
G75*
G02*
X39197000Y-28869000I-51000J0D01*
G01*
X38597000Y-28869000D01*
G75*
G02*
X38546000Y-28818000I0J51000D01*
G01*
X38546000Y-27368000D01*
G75*
G02*
X38597000Y-27317000I51000J0D01*
G01*
X39197000Y-27317000D01*
G75*
G02*
X39248000Y-27368000I0J-51000D01*
G01*
G37*
G36*
G01*
X34348000Y-27368000D02*
X34348000Y-28818000D01*
G75*
G02*
X34297000Y-28869000I-51000J0D01*
G01*
X33697000Y-28869000D01*
G75*
G02*
X33646000Y-28818000I0J51000D01*
G01*
X33646000Y-27368000D01*
G75*
G02*
X33697000Y-27317000I51000J0D01*
G01*
X34297000Y-27317000D01*
G75*
G02*
X34348000Y-27368000I0J-51000D01*
G01*
G37*
G36*
G01*
X33548000Y-27368000D02*
X33548000Y-28818000D01*
G75*
G02*
X33497000Y-28869000I-51000J0D01*
G01*
X32897000Y-28869000D01*
G75*
G02*
X32846000Y-28818000I0J51000D01*
G01*
X32846000Y-27368000D01*
G75*
G02*
X32897000Y-27317000I51000J0D01*
G01*
X33497000Y-27317000D01*
G75*
G02*
X33548000Y-27368000I0J-51000D01*
G01*
G37*
G36*
G01*
X38398000Y-27368000D02*
X38398000Y-28818000D01*
G75*
G02*
X38347000Y-28869000I-51000J0D01*
G01*
X38047000Y-28869000D01*
G75*
G02*
X37996000Y-28818000I0J51000D01*
G01*
X37996000Y-27368000D01*
G75*
G02*
X38047000Y-27317000I51000J0D01*
G01*
X38347000Y-27317000D01*
G75*
G02*
X38398000Y-27368000I0J-51000D01*
G01*
G37*
G36*
G01*
X37898000Y-27368000D02*
X37898000Y-28818000D01*
G75*
G02*
X37847000Y-28869000I-51000J0D01*
G01*
X37547000Y-28869000D01*
G75*
G02*
X37496000Y-28818000I0J51000D01*
G01*
X37496000Y-27368000D01*
G75*
G02*
X37547000Y-27317000I51000J0D01*
G01*
X37847000Y-27317000D01*
G75*
G02*
X37898000Y-27368000I0J-51000D01*
G01*
G37*
G36*
G01*
X37398000Y-27368000D02*
X37398000Y-28818000D01*
G75*
G02*
X37347000Y-28869000I-51000J0D01*
G01*
X37047000Y-28869000D01*
G75*
G02*
X36996000Y-28818000I0J51000D01*
G01*
X36996000Y-27368000D01*
G75*
G02*
X37047000Y-27317000I51000J0D01*
G01*
X37347000Y-27317000D01*
G75*
G02*
X37398000Y-27368000I0J-51000D01*
G01*
G37*
G36*
G01*
X36398000Y-27368000D02*
X36398000Y-28818000D01*
G75*
G02*
X36347000Y-28869000I-51000J0D01*
G01*
X36047000Y-28869000D01*
G75*
G02*
X35996000Y-28818000I0J51000D01*
G01*
X35996000Y-27368000D01*
G75*
G02*
X36047000Y-27317000I51000J0D01*
G01*
X36347000Y-27317000D01*
G75*
G02*
X36398000Y-27368000I0J-51000D01*
G01*
G37*
G36*
G01*
X35898000Y-27368000D02*
X35898000Y-28818000D01*
G75*
G02*
X35847000Y-28869000I-51000J0D01*
G01*
X35547000Y-28869000D01*
G75*
G02*
X35496000Y-28818000I0J51000D01*
G01*
X35496000Y-27368000D01*
G75*
G02*
X35547000Y-27317000I51000J0D01*
G01*
X35847000Y-27317000D01*
G75*
G02*
X35898000Y-27368000I0J-51000D01*
G01*
G37*
G36*
G01*
X35398000Y-27368000D02*
X35398000Y-28818000D01*
G75*
G02*
X35347000Y-28869000I-51000J0D01*
G01*
X35047000Y-28869000D01*
G75*
G02*
X34996000Y-28818000I0J51000D01*
G01*
X34996000Y-27368000D01*
G75*
G02*
X35047000Y-27317000I51000J0D01*
G01*
X35347000Y-27317000D01*
G75*
G02*
X35398000Y-27368000I0J-51000D01*
G01*
G37*
G36*
G01*
X34898000Y-27368000D02*
X34898000Y-28818000D01*
G75*
G02*
X34847000Y-28869000I-51000J0D01*
G01*
X34547000Y-28869000D01*
G75*
G02*
X34496000Y-28818000I0J51000D01*
G01*
X34496000Y-27368000D01*
G75*
G02*
X34547000Y-27317000I51000J0D01*
G01*
X34847000Y-27317000D01*
G75*
G02*
X34898000Y-27368000I0J-51000D01*
G01*
G37*
G36*
G01*
X36898000Y-27368000D02*
X36898000Y-28818000D01*
G75*
G02*
X36847000Y-28869000I-51000J0D01*
G01*
X36547000Y-28869000D01*
G75*
G02*
X36496000Y-28818000I0J51000D01*
G01*
X36496000Y-27368000D01*
G75*
G02*
X36547000Y-27317000I51000J0D01*
G01*
X36847000Y-27317000D01*
G75*
G02*
X36898000Y-27368000I0J-51000D01*
G01*
G37*
D10*
X32127000Y-27178000D03*
X40767000Y-27178000D03*
D11*
X39337000Y-26648000D03*
D12*
X40767000Y-22998000D03*
D11*
X33557000Y-26648000D03*
D12*
X32127000Y-22998000D03*
G36*
G01*
X53402000Y-27369166D02*
X53402000Y-30542834D01*
G75*
G02*
X53137834Y-30807000I-264166J0D01*
G01*
X51764166Y-30807000D01*
G75*
G02*
X51500000Y-30542834I0J264166D01*
G01*
X51500000Y-27369166D01*
G75*
G02*
X51764166Y-27105000I264166J0D01*
G01*
X53137834Y-27105000D01*
G75*
G02*
X53402000Y-27369166I0J-264166D01*
G01*
G37*
D13*
X48641000Y-28956000D03*
G36*
G01*
X45191400Y-35138000D02*
X46502600Y-35138000D01*
G75*
G02*
X46773000Y-35408400I0J-270400D01*
G01*
X46773000Y-36219600D01*
G75*
G02*
X46502600Y-36490000I-270400J0D01*
G01*
X45191400Y-36490000D01*
G75*
G02*
X44921000Y-36219600I0J270400D01*
G01*
X44921000Y-35408400D01*
G75*
G02*
X45191400Y-35138000I270400J0D01*
G01*
G37*
G36*
G01*
X45191400Y-32338000D02*
X46502600Y-32338000D01*
G75*
G02*
X46773000Y-32608400I0J-270400D01*
G01*
X46773000Y-33419600D01*
G75*
G02*
X46502600Y-33690000I-270400J0D01*
G01*
X45191400Y-33690000D01*
G75*
G02*
X44921000Y-33419600I0J270400D01*
G01*
X44921000Y-32608400D01*
G75*
G02*
X45191400Y-32338000I270400J0D01*
G01*
G37*
D14*
X20193000Y-38100000D03*
X52578000Y-38100000D03*
G36*
G01*
X23656000Y-38396000D02*
X23656000Y-37296000D01*
G75*
G02*
X23707000Y-37245000I51000J0D01*
G01*
X24807000Y-37245000D01*
G75*
G02*
X24858000Y-37296000I0J-51000D01*
G01*
X24858000Y-38396000D01*
G75*
G02*
X24807000Y-38447000I-51000J0D01*
G01*
X23707000Y-38447000D01*
G75*
G02*
X23656000Y-38396000I0J51000D01*
G01*
G37*
G36*
G01*
X26456000Y-38396000D02*
X26456000Y-37296000D01*
G75*
G02*
X26507000Y-37245000I51000J0D01*
G01*
X27607000Y-37245000D01*
G75*
G02*
X27658000Y-37296000I0J-51000D01*
G01*
X27658000Y-38396000D01*
G75*
G02*
X27607000Y-38447000I-51000J0D01*
G01*
X26507000Y-38447000D01*
G75*
G02*
X26456000Y-38396000I0J51000D01*
G01*
G37*
G36*
G01*
X25112000Y-39582000D02*
X25112000Y-40682000D01*
G75*
G02*
X25061000Y-40733000I-51000J0D01*
G01*
X23961000Y-40733000D01*
G75*
G02*
X23910000Y-40682000I0J51000D01*
G01*
X23910000Y-39582000D01*
G75*
G02*
X23961000Y-39531000I51000J0D01*
G01*
X25061000Y-39531000D01*
G75*
G02*
X25112000Y-39582000I0J-51000D01*
G01*
G37*
G36*
G01*
X27912000Y-39582000D02*
X27912000Y-40682000D01*
G75*
G02*
X27861000Y-40733000I-51000J0D01*
G01*
X26761000Y-40733000D01*
G75*
G02*
X26710000Y-40682000I0J51000D01*
G01*
X26710000Y-39582000D01*
G75*
G02*
X26761000Y-39531000I51000J0D01*
G01*
X27861000Y-39531000D01*
G75*
G02*
X27912000Y-39582000I0J-51000D01*
G01*
G37*
G36*
G01*
X32398000Y-33860500D02*
X32398000Y-34211500D01*
G75*
G02*
X32222500Y-34387000I-175500J0D01*
G01*
X30521500Y-34387000D01*
G75*
G02*
X30346000Y-34211500I0J175500D01*
G01*
X30346000Y-33860500D01*
G75*
G02*
X30521500Y-33685000I175500J0D01*
G01*
X32222500Y-33685000D01*
G75*
G02*
X32398000Y-33860500I0J-175500D01*
G01*
G37*
G36*
G01*
X32398000Y-32590500D02*
X32398000Y-32941500D01*
G75*
G02*
X32222500Y-33117000I-175500J0D01*
G01*
X30521500Y-33117000D01*
G75*
G02*
X30346000Y-32941500I0J175500D01*
G01*
X30346000Y-32590500D01*
G75*
G02*
X30521500Y-32415000I175500J0D01*
G01*
X32222500Y-32415000D01*
G75*
G02*
X32398000Y-32590500I0J-175500D01*
G01*
G37*
G36*
G01*
X32398000Y-31320500D02*
X32398000Y-31671500D01*
G75*
G02*
X32222500Y-31847000I-175500J0D01*
G01*
X30521500Y-31847000D01*
G75*
G02*
X30346000Y-31671500I0J175500D01*
G01*
X30346000Y-31320500D01*
G75*
G02*
X30521500Y-31145000I175500J0D01*
G01*
X32222500Y-31145000D01*
G75*
G02*
X32398000Y-31320500I0J-175500D01*
G01*
G37*
G36*
G01*
X32398000Y-30050500D02*
X32398000Y-30401500D01*
G75*
G02*
X32222500Y-30577000I-175500J0D01*
G01*
X30521500Y-30577000D01*
G75*
G02*
X30346000Y-30401500I0J175500D01*
G01*
X30346000Y-30050500D01*
G75*
G02*
X30521500Y-29875000I175500J0D01*
G01*
X32222500Y-29875000D01*
G75*
G02*
X32398000Y-30050500I0J-175500D01*
G01*
G37*
G36*
G01*
X37348000Y-30050500D02*
X37348000Y-30401500D01*
G75*
G02*
X37172500Y-30577000I-175500J0D01*
G01*
X35471500Y-30577000D01*
G75*
G02*
X35296000Y-30401500I0J175500D01*
G01*
X35296000Y-30050500D01*
G75*
G02*
X35471500Y-29875000I175500J0D01*
G01*
X37172500Y-29875000D01*
G75*
G02*
X37348000Y-30050500I0J-175500D01*
G01*
G37*
G36*
G01*
X37348000Y-31320500D02*
X37348000Y-31671500D01*
G75*
G02*
X37172500Y-31847000I-175500J0D01*
G01*
X35471500Y-31847000D01*
G75*
G02*
X35296000Y-31671500I0J175500D01*
G01*
X35296000Y-31320500D01*
G75*
G02*
X35471500Y-31145000I175500J0D01*
G01*
X37172500Y-31145000D01*
G75*
G02*
X37348000Y-31320500I0J-175500D01*
G01*
G37*
G36*
G01*
X37348000Y-32590500D02*
X37348000Y-32941500D01*
G75*
G02*
X37172500Y-33117000I-175500J0D01*
G01*
X35471500Y-33117000D01*
G75*
G02*
X35296000Y-32941500I0J175500D01*
G01*
X35296000Y-32590500D01*
G75*
G02*
X35471500Y-32415000I175500J0D01*
G01*
X37172500Y-32415000D01*
G75*
G02*
X37348000Y-32590500I0J-175500D01*
G01*
G37*
G36*
G01*
X37348000Y-33860500D02*
X37348000Y-34211500D01*
G75*
G02*
X37172500Y-34387000I-175500J0D01*
G01*
X35471500Y-34387000D01*
G75*
G02*
X35296000Y-34211500I0J175500D01*
G01*
X35296000Y-33860500D01*
G75*
G02*
X35471500Y-33685000I175500J0D01*
G01*
X37172500Y-33685000D01*
G75*
G02*
X37348000Y-33860500I0J-175500D01*
G01*
G37*
D15*
X18923000Y-32004000D03*
X23923000Y-32004000D03*
X23923000Y-25754000D03*
X21423000Y-25754000D03*
X18923000Y-25754000D03*
G36*
G01*
X28350172Y-35460000D02*
X29307828Y-35460000D01*
G75*
G02*
X29580000Y-35732172I0J-272172D01*
G01*
X29580000Y-36439828D01*
G75*
G02*
X29307828Y-36712000I-272172J0D01*
G01*
X28350172Y-36712000D01*
G75*
G02*
X28078000Y-36439828I0J272172D01*
G01*
X28078000Y-35732172D01*
G75*
G02*
X28350172Y-35460000I272172J0D01*
G01*
G37*
G36*
G01*
X28350172Y-33410000D02*
X29307828Y-33410000D01*
G75*
G02*
X29580000Y-33682172I0J-272172D01*
G01*
X29580000Y-34389828D01*
G75*
G02*
X29307828Y-34662000I-272172J0D01*
G01*
X28350172Y-34662000D01*
G75*
G02*
X28078000Y-34389828I0J272172D01*
G01*
X28078000Y-33682172D01*
G75*
G02*
X28350172Y-33410000I272172J0D01*
G01*
G37*
G36*
G01*
X42155000Y-32668172D02*
X42155000Y-33625828D01*
G75*
G02*
X41882828Y-33898000I-272172J0D01*
G01*
X41175172Y-33898000D01*
G75*
G02*
X40903000Y-33625828I0J272172D01*
G01*
X40903000Y-32668172D01*
G75*
G02*
X41175172Y-32396000I272172J0D01*
G01*
X41882828Y-32396000D01*
G75*
G02*
X42155000Y-32668172I0J-272172D01*
G01*
G37*
G36*
G01*
X44205000Y-32668172D02*
X44205000Y-33625828D01*
G75*
G02*
X43932828Y-33898000I-272172J0D01*
G01*
X43225172Y-33898000D01*
G75*
G02*
X42953000Y-33625828I0J272172D01*
G01*
X42953000Y-32668172D01*
G75*
G02*
X43225172Y-32396000I272172J0D01*
G01*
X43932828Y-32396000D01*
G75*
G02*
X44205000Y-32668172I0J-272172D01*
G01*
G37*
G36*
G01*
X42953000Y-35784828D02*
X42953000Y-34827172D01*
G75*
G02*
X43225172Y-34555000I272172J0D01*
G01*
X43932828Y-34555000D01*
G75*
G02*
X44205000Y-34827172I0J-272172D01*
G01*
X44205000Y-35784828D01*
G75*
G02*
X43932828Y-36057000I-272172J0D01*
G01*
X43225172Y-36057000D01*
G75*
G02*
X42953000Y-35784828I0J272172D01*
G01*
G37*
G36*
G01*
X40903000Y-35784828D02*
X40903000Y-34827172D01*
G75*
G02*
X41175172Y-34555000I272172J0D01*
G01*
X41882828Y-34555000D01*
G75*
G02*
X42155000Y-34827172I0J-272172D01*
G01*
X42155000Y-35784828D01*
G75*
G02*
X41882828Y-36057000I-272172J0D01*
G01*
X41175172Y-36057000D01*
G75*
G02*
X40903000Y-35784828I0J272172D01*
G01*
G37*
G36*
G01*
X43155000Y-38688000D02*
X43155000Y-37888000D01*
G75*
G02*
X43206000Y-37837000I51000J0D01*
G01*
X44106000Y-37837000D01*
G75*
G02*
X44157000Y-37888000I0J-51000D01*
G01*
X44157000Y-38688000D01*
G75*
G02*
X44106000Y-38739000I-51000J0D01*
G01*
X43206000Y-38739000D01*
G75*
G02*
X43155000Y-38688000I0J51000D01*
G01*
G37*
G36*
G01*
X41155000Y-39638000D02*
X41155000Y-38838000D01*
G75*
G02*
X41206000Y-38787000I51000J0D01*
G01*
X42106000Y-38787000D01*
G75*
G02*
X42157000Y-38838000I0J-51000D01*
G01*
X42157000Y-39638000D01*
G75*
G02*
X42106000Y-39689000I-51000J0D01*
G01*
X41206000Y-39689000D01*
G75*
G02*
X41155000Y-39638000I0J51000D01*
G01*
G37*
G36*
G01*
X41155000Y-37738000D02*
X41155000Y-36938000D01*
G75*
G02*
X41206000Y-36887000I51000J0D01*
G01*
X42106000Y-36887000D01*
G75*
G02*
X42157000Y-36938000I0J-51000D01*
G01*
X42157000Y-37738000D01*
G75*
G02*
X42106000Y-37789000I-51000J0D01*
G01*
X41206000Y-37789000D01*
G75*
G02*
X41155000Y-37738000I0J51000D01*
G01*
G37*
G36*
G01*
X28350172Y-31632000D02*
X29307828Y-31632000D01*
G75*
G02*
X29580000Y-31904172I0J-272172D01*
G01*
X29580000Y-32611828D01*
G75*
G02*
X29307828Y-32884000I-272172J0D01*
G01*
X28350172Y-32884000D01*
G75*
G02*
X28078000Y-32611828I0J272172D01*
G01*
X28078000Y-31904172D01*
G75*
G02*
X28350172Y-31632000I272172J0D01*
G01*
G37*
G36*
G01*
X28350172Y-29582000D02*
X29307828Y-29582000D01*
G75*
G02*
X29580000Y-29854172I0J-272172D01*
G01*
X29580000Y-30561828D01*
G75*
G02*
X29307828Y-30834000I-272172J0D01*
G01*
X28350172Y-30834000D01*
G75*
G02*
X28078000Y-30561828I0J272172D01*
G01*
X28078000Y-29854172D01*
G75*
G02*
X28350172Y-29582000I272172J0D01*
G01*
G37*
G36*
G01*
X37438000Y-39320063D02*
X37438000Y-38149937D01*
G75*
G02*
X37703937Y-37884000I265937J0D01*
G01*
X40274063Y-37884000D01*
G75*
G02*
X40540000Y-38149937I0J-265937D01*
G01*
X40540000Y-39320063D01*
G75*
G02*
X40274063Y-39586000I-265937J0D01*
G01*
X37703937Y-39586000D01*
G75*
G02*
X37438000Y-39320063I0J265937D01*
G01*
G37*
G36*
G01*
X33038000Y-39320063D02*
X33038000Y-38149937D01*
G75*
G02*
X33303937Y-37884000I265937J0D01*
G01*
X35874063Y-37884000D01*
G75*
G02*
X36140000Y-38149937I0J-265937D01*
G01*
X36140000Y-39320063D01*
G75*
G02*
X35874063Y-39586000I-265937J0D01*
G01*
X33303937Y-39586000D01*
G75*
G02*
X33038000Y-39320063I0J265937D01*
G01*
G37*
G36*
G01*
X32403000Y-36419828D02*
X32403000Y-35462172D01*
G75*
G02*
X32675172Y-35190000I272172J0D01*
G01*
X33382828Y-35190000D01*
G75*
G02*
X33655000Y-35462172I0J-272172D01*
G01*
X33655000Y-36419828D01*
G75*
G02*
X33382828Y-36692000I-272172J0D01*
G01*
X32675172Y-36692000D01*
G75*
G02*
X32403000Y-36419828I0J272172D01*
G01*
G37*
G36*
G01*
X30353000Y-36419828D02*
X30353000Y-35462172D01*
G75*
G02*
X30625172Y-35190000I272172J0D01*
G01*
X31332828Y-35190000D01*
G75*
G02*
X31605000Y-35462172I0J-272172D01*
G01*
X31605000Y-36419828D01*
G75*
G02*
X31332828Y-36692000I-272172J0D01*
G01*
X30625172Y-36692000D01*
G75*
G02*
X30353000Y-36419828I0J272172D01*
G01*
G37*
G36*
G01*
X38764172Y-34317000D02*
X39721828Y-34317000D01*
G75*
G02*
X39994000Y-34589172I0J-272172D01*
G01*
X39994000Y-35296828D01*
G75*
G02*
X39721828Y-35569000I-272172J0D01*
G01*
X38764172Y-35569000D01*
G75*
G02*
X38492000Y-35296828I0J272172D01*
G01*
X38492000Y-34589172D01*
G75*
G02*
X38764172Y-34317000I272172J0D01*
G01*
G37*
G36*
G01*
X38764172Y-32267000D02*
X39721828Y-32267000D01*
G75*
G02*
X39994000Y-32539172I0J-272172D01*
G01*
X39994000Y-33246828D01*
G75*
G02*
X39721828Y-33519000I-272172J0D01*
G01*
X38764172Y-33519000D01*
G75*
G02*
X38492000Y-33246828I0J272172D01*
G01*
X38492000Y-32539172D01*
G75*
G02*
X38764172Y-32267000I272172J0D01*
G01*
G37*
D16*
G36*
X51501990Y-30542638D02*
G01*
X51507046Y-30593975D01*
X51521965Y-30643157D01*
X51546191Y-30688481D01*
X51578793Y-30728207D01*
X51618519Y-30760809D01*
X51663843Y-30785035D01*
X51713025Y-30799954D01*
X51764362Y-30805010D01*
X51765988Y-30806175D01*
X51765792Y-30808165D01*
X51764166Y-30809000D01*
X51680029Y-30809000D01*
X51679833Y-30808990D01*
X51639889Y-30805056D01*
X51639504Y-30804980D01*
X51606995Y-30795119D01*
X51606633Y-30794969D01*
X51576675Y-30778955D01*
X51576349Y-30778737D01*
X51550090Y-30757187D01*
X51549813Y-30756910D01*
X51528263Y-30730651D01*
X51528045Y-30730325D01*
X51512031Y-30700367D01*
X51511881Y-30700005D01*
X51502020Y-30667496D01*
X51501944Y-30667111D01*
X51498010Y-30627167D01*
X51498000Y-30626971D01*
X51498000Y-30542834D01*
X51499000Y-30541102D01*
X51501000Y-30541102D01*
X51501990Y-30542638D01*
G37*
G36*
X53403165Y-30541208D02*
G01*
X53404000Y-30542834D01*
X53404000Y-30626971D01*
X53403990Y-30627167D01*
X53400056Y-30667111D01*
X53399980Y-30667496D01*
X53390119Y-30700005D01*
X53389969Y-30700367D01*
X53373955Y-30730325D01*
X53373737Y-30730651D01*
X53352187Y-30756910D01*
X53351910Y-30757187D01*
X53325651Y-30778737D01*
X53325325Y-30778955D01*
X53295367Y-30794969D01*
X53295005Y-30795119D01*
X53262496Y-30804980D01*
X53262111Y-30805056D01*
X53222167Y-30808990D01*
X53221971Y-30809000D01*
X53137834Y-30809000D01*
X53136102Y-30808000D01*
X53136102Y-30806000D01*
X53137638Y-30805010D01*
X53188975Y-30799954D01*
X53238157Y-30785035D01*
X53283481Y-30760809D01*
X53323207Y-30728207D01*
X53355809Y-30688481D01*
X53380035Y-30643157D01*
X53394954Y-30593975D01*
X53400010Y-30542638D01*
X53401175Y-30541012D01*
X53403165Y-30541208D01*
G37*
G36*
X39347732Y-27316000D02*
G01*
X39348000Y-27317000D01*
X39348000Y-28869000D01*
X39347000Y-28870732D01*
X39346000Y-28871000D01*
X39248000Y-28871000D01*
X39246268Y-28870000D01*
X39246000Y-28869000D01*
X39246000Y-27317000D01*
X39247000Y-27315268D01*
X39248000Y-27315000D01*
X39346000Y-27315000D01*
X39347732Y-27316000D01*
G37*
G36*
X33647732Y-27316000D02*
G01*
X33648000Y-27317000D01*
X33648000Y-28869000D01*
X33647000Y-28870732D01*
X33646000Y-28871000D01*
X33548000Y-28871000D01*
X33546268Y-28870000D01*
X33546000Y-28869000D01*
X33546000Y-27317000D01*
X33547000Y-27315268D01*
X33548000Y-27315000D01*
X33646000Y-27315000D01*
X33647732Y-27316000D01*
G37*
G36*
X34497732Y-27316000D02*
G01*
X34498000Y-27317000D01*
X34498000Y-28869000D01*
X34497000Y-28870732D01*
X34496000Y-28871000D01*
X34348000Y-28871000D01*
X34346268Y-28870000D01*
X34346000Y-28869000D01*
X34346000Y-27317000D01*
X34347000Y-27315268D01*
X34348000Y-27315000D01*
X34496000Y-27315000D01*
X34497732Y-27316000D01*
G37*
G36*
X34997732Y-27316000D02*
G01*
X34998000Y-27317000D01*
X34998000Y-28869000D01*
X34997000Y-28870732D01*
X34996000Y-28871000D01*
X34898000Y-28871000D01*
X34896268Y-28870000D01*
X34896000Y-28869000D01*
X34896000Y-27317000D01*
X34897000Y-27315268D01*
X34898000Y-27315000D01*
X34996000Y-27315000D01*
X34997732Y-27316000D01*
G37*
G36*
X35497732Y-27316000D02*
G01*
X35498000Y-27317000D01*
X35498000Y-28869000D01*
X35497000Y-28870732D01*
X35496000Y-28871000D01*
X35398000Y-28871000D01*
X35396268Y-28870000D01*
X35396000Y-28869000D01*
X35396000Y-27317000D01*
X35397000Y-27315268D01*
X35398000Y-27315000D01*
X35496000Y-27315000D01*
X35497732Y-27316000D01*
G37*
G36*
X35997732Y-27316000D02*
G01*
X35998000Y-27317000D01*
X35998000Y-28869000D01*
X35997000Y-28870732D01*
X35996000Y-28871000D01*
X35898000Y-28871000D01*
X35896268Y-28870000D01*
X35896000Y-28869000D01*
X35896000Y-27317000D01*
X35897000Y-27315268D01*
X35898000Y-27315000D01*
X35996000Y-27315000D01*
X35997732Y-27316000D01*
G37*
G36*
X36997732Y-27316000D02*
G01*
X36998000Y-27317000D01*
X36998000Y-28869000D01*
X36997000Y-28870732D01*
X36996000Y-28871000D01*
X36898000Y-28871000D01*
X36896268Y-28870000D01*
X36896000Y-28869000D01*
X36896000Y-27317000D01*
X36897000Y-27315268D01*
X36898000Y-27315000D01*
X36996000Y-27315000D01*
X36997732Y-27316000D01*
G37*
G36*
X37497732Y-27316000D02*
G01*
X37498000Y-27317000D01*
X37498000Y-28869000D01*
X37497000Y-28870732D01*
X37496000Y-28871000D01*
X37398000Y-28871000D01*
X37396268Y-28870000D01*
X37396000Y-28869000D01*
X37396000Y-27317000D01*
X37397000Y-27315268D01*
X37398000Y-27315000D01*
X37496000Y-27315000D01*
X37497732Y-27316000D01*
G37*
G36*
X37997732Y-27316000D02*
G01*
X37998000Y-27317000D01*
X37998000Y-28869000D01*
X37997000Y-28870732D01*
X37996000Y-28871000D01*
X37898000Y-28871000D01*
X37896268Y-28870000D01*
X37896000Y-28869000D01*
X37896000Y-27317000D01*
X37897000Y-27315268D01*
X37898000Y-27315000D01*
X37996000Y-27315000D01*
X37997732Y-27316000D01*
G37*
G36*
X38547732Y-27316000D02*
G01*
X38548000Y-27317000D01*
X38548000Y-28869000D01*
X38547000Y-28870732D01*
X38546000Y-28871000D01*
X38398000Y-28871000D01*
X38396268Y-28870000D01*
X38396000Y-28869000D01*
X38396000Y-27317000D01*
X38397000Y-27315268D01*
X38398000Y-27315000D01*
X38546000Y-27315000D01*
X38547732Y-27316000D01*
G37*
G36*
X36497732Y-27316000D02*
G01*
X36498000Y-27317000D01*
X36498000Y-28869000D01*
X36497000Y-28870732D01*
X36496000Y-28871000D01*
X36398000Y-28871000D01*
X36396268Y-28870000D01*
X36396000Y-28869000D01*
X36396000Y-27317000D01*
X36397000Y-27315268D01*
X36398000Y-27315000D01*
X36496000Y-27315000D01*
X36497732Y-27316000D01*
G37*
G36*
X40217165Y-27190375D02*
G01*
X40218000Y-27192001D01*
X40218000Y-27727906D01*
X40228557Y-27835099D01*
X40259799Y-27938089D01*
X40281591Y-27978859D01*
X40281525Y-27980858D01*
X40279762Y-27981801D01*
X40278164Y-27980913D01*
X40268070Y-27965806D01*
X40251023Y-27948759D01*
X40230976Y-27935365D01*
X40208702Y-27926138D01*
X40185052Y-27921434D01*
X40160946Y-27921434D01*
X40137296Y-27926138D01*
X40115022Y-27935365D01*
X40094974Y-27948760D01*
X40077927Y-27965807D01*
X40064533Y-27985854D01*
X40055323Y-28008085D01*
X40049978Y-28044124D01*
X40048735Y-28045691D01*
X40046757Y-28045398D01*
X40046000Y-28043831D01*
X40046000Y-27317000D01*
X40047000Y-27315268D01*
X40048000Y-27315000D01*
X40090907Y-27315000D01*
X40114992Y-27312628D01*
X40138067Y-27305628D01*
X40159331Y-27294263D01*
X40177968Y-27278968D01*
X40193263Y-27260331D01*
X40204628Y-27239067D01*
X40211628Y-27215992D01*
X40214010Y-27191805D01*
X40215175Y-27190179D01*
X40217165Y-27190375D01*
G37*
G36*
X32679990Y-27191805D02*
G01*
X32682372Y-27215992D01*
X32689372Y-27239067D01*
X32700737Y-27260331D01*
X32716032Y-27278968D01*
X32734669Y-27294263D01*
X32755933Y-27305628D01*
X32779008Y-27312628D01*
X32803093Y-27315000D01*
X32846000Y-27315000D01*
X32847732Y-27316000D01*
X32848000Y-27317000D01*
X32848000Y-28043831D01*
X32847000Y-28045563D01*
X32845000Y-28045563D01*
X32844010Y-28044027D01*
X32841628Y-28019841D01*
X32834628Y-27996766D01*
X32823263Y-27975502D01*
X32807968Y-27956865D01*
X32789331Y-27941570D01*
X32768067Y-27930205D01*
X32744992Y-27923205D01*
X32721001Y-27920842D01*
X32697010Y-27923205D01*
X32673935Y-27930205D01*
X32652671Y-27941570D01*
X32634070Y-27956835D01*
X32614810Y-27982806D01*
X32612975Y-27983602D01*
X32611369Y-27982411D01*
X32611440Y-27980672D01*
X32634201Y-27938090D01*
X32665443Y-27835100D01*
X32676000Y-27727906D01*
X32676000Y-27192001D01*
X32677000Y-27190269D01*
X32679000Y-27190269D01*
X32679990Y-27191805D01*
G37*
G36*
X51765898Y-27104000D02*
G01*
X51765898Y-27106000D01*
X51764362Y-27106990D01*
X51713025Y-27112046D01*
X51663843Y-27126965D01*
X51618519Y-27151191D01*
X51578793Y-27183793D01*
X51546191Y-27223519D01*
X51521965Y-27268843D01*
X51507046Y-27318025D01*
X51501990Y-27369362D01*
X51500825Y-27370988D01*
X51498835Y-27370792D01*
X51498000Y-27369166D01*
X51498000Y-27285029D01*
X51498010Y-27284833D01*
X51501944Y-27244889D01*
X51502020Y-27244504D01*
X51511881Y-27211995D01*
X51512031Y-27211633D01*
X51528045Y-27181675D01*
X51528263Y-27181349D01*
X51549813Y-27155090D01*
X51550090Y-27154813D01*
X51576349Y-27133263D01*
X51576675Y-27133045D01*
X51606633Y-27117031D01*
X51606995Y-27116881D01*
X51639504Y-27107020D01*
X51639889Y-27106944D01*
X51679833Y-27103010D01*
X51680029Y-27103000D01*
X51764166Y-27103000D01*
X51765898Y-27104000D01*
G37*
G36*
X53222167Y-27103010D02*
G01*
X53262111Y-27106944D01*
X53262496Y-27107020D01*
X53295005Y-27116881D01*
X53295367Y-27117031D01*
X53325325Y-27133045D01*
X53325651Y-27133263D01*
X53351910Y-27154813D01*
X53352187Y-27155090D01*
X53373737Y-27181349D01*
X53373955Y-27181675D01*
X53389969Y-27211633D01*
X53390119Y-27211995D01*
X53399980Y-27244504D01*
X53400056Y-27244889D01*
X53403990Y-27284833D01*
X53404000Y-27285029D01*
X53404000Y-27369166D01*
X53403000Y-27370898D01*
X53401000Y-27370898D01*
X53400010Y-27369362D01*
X53394954Y-27318025D01*
X53380035Y-27268843D01*
X53355809Y-27223519D01*
X53323207Y-27183793D01*
X53283481Y-27151191D01*
X53238157Y-27126965D01*
X53188975Y-27112046D01*
X53137638Y-27106990D01*
X53136012Y-27105825D01*
X53136208Y-27103835D01*
X53137834Y-27103000D01*
X53221971Y-27103000D01*
X53222167Y-27103010D01*
G37*
M02*
