G04 #@! TF.GenerationSoftware,KiCad,Pcbnew,5.1.7-a382d34a8~87~ubuntu20.04.1*
G04 #@! TF.CreationDate,2020-11-17T21:36:07+01:00*
G04 #@! TF.ProjectId,Microscope_LED,4d696372-6f73-4636-9f70-655f4c45442e,rev?*
G04 #@! TF.SameCoordinates,Original*
G04 #@! TF.FileFunction,Soldermask,Bot*
G04 #@! TF.FilePolarity,Negative*
%FSLAX46Y46*%
G04 Gerber Fmt 4.6, Leading zero omitted, Abs format (unit mm)*
G04 Created by KiCad (PCBNEW 5.1.7-a382d34a8~87~ubuntu20.04.1) date 2020-11-17 21:36:07*
%MOMM*%
%LPD*%
G01*
G04 APERTURE LIST*
%ADD10O,1.102000X2.202000*%
%ADD11C,0.752000*%
%ADD12O,1.102000X1.702000*%
%ADD13O,1.902000X3.702000*%
%ADD14C,3.302000*%
%ADD15C,2.102000*%
%ADD16C,0.100000*%
G04 APERTURE END LIST*
D10*
X32127000Y-27178000D03*
X40767000Y-27178000D03*
D11*
X39337000Y-26648000D03*
D12*
X40767000Y-22998000D03*
D11*
X33557000Y-26648000D03*
D12*
X32127000Y-22998000D03*
G36*
G01*
X53402000Y-27369166D02*
X53402000Y-30542834D01*
G75*
G02*
X53137834Y-30807000I-264166J0D01*
G01*
X51764166Y-30807000D01*
G75*
G02*
X51500000Y-30542834I0J264166D01*
G01*
X51500000Y-27369166D01*
G75*
G02*
X51764166Y-27105000I264166J0D01*
G01*
X53137834Y-27105000D01*
G75*
G02*
X53402000Y-27369166I0J-264166D01*
G01*
G37*
D13*
X48641000Y-28956000D03*
D14*
X20193000Y-38100000D03*
X52578000Y-38100000D03*
D15*
X18923000Y-32004000D03*
X23923000Y-32004000D03*
X23923000Y-25754000D03*
X21423000Y-25754000D03*
X18923000Y-25754000D03*
D16*
G36*
X51501990Y-30542638D02*
G01*
X51507046Y-30593975D01*
X51521965Y-30643157D01*
X51546191Y-30688481D01*
X51578793Y-30728207D01*
X51618519Y-30760809D01*
X51663843Y-30785035D01*
X51713025Y-30799954D01*
X51764362Y-30805010D01*
X51765988Y-30806175D01*
X51765792Y-30808165D01*
X51764166Y-30809000D01*
X51680029Y-30809000D01*
X51679833Y-30808990D01*
X51639889Y-30805056D01*
X51639504Y-30804980D01*
X51606995Y-30795119D01*
X51606633Y-30794969D01*
X51576675Y-30778955D01*
X51576349Y-30778737D01*
X51550090Y-30757187D01*
X51549813Y-30756910D01*
X51528263Y-30730651D01*
X51528045Y-30730325D01*
X51512031Y-30700367D01*
X51511881Y-30700005D01*
X51502020Y-30667496D01*
X51501944Y-30667111D01*
X51498010Y-30627167D01*
X51498000Y-30626971D01*
X51498000Y-30542834D01*
X51499000Y-30541102D01*
X51501000Y-30541102D01*
X51501990Y-30542638D01*
G37*
G36*
X53403165Y-30541208D02*
G01*
X53404000Y-30542834D01*
X53404000Y-30626971D01*
X53403990Y-30627167D01*
X53400056Y-30667111D01*
X53399980Y-30667496D01*
X53390119Y-30700005D01*
X53389969Y-30700367D01*
X53373955Y-30730325D01*
X53373737Y-30730651D01*
X53352187Y-30756910D01*
X53351910Y-30757187D01*
X53325651Y-30778737D01*
X53325325Y-30778955D01*
X53295367Y-30794969D01*
X53295005Y-30795119D01*
X53262496Y-30804980D01*
X53262111Y-30805056D01*
X53222167Y-30808990D01*
X53221971Y-30809000D01*
X53137834Y-30809000D01*
X53136102Y-30808000D01*
X53136102Y-30806000D01*
X53137638Y-30805010D01*
X53188975Y-30799954D01*
X53238157Y-30785035D01*
X53283481Y-30760809D01*
X53323207Y-30728207D01*
X53355809Y-30688481D01*
X53380035Y-30643157D01*
X53394954Y-30593975D01*
X53400010Y-30542638D01*
X53401175Y-30541012D01*
X53403165Y-30541208D01*
G37*
G36*
X51765898Y-27104000D02*
G01*
X51765898Y-27106000D01*
X51764362Y-27106990D01*
X51713025Y-27112046D01*
X51663843Y-27126965D01*
X51618519Y-27151191D01*
X51578793Y-27183793D01*
X51546191Y-27223519D01*
X51521965Y-27268843D01*
X51507046Y-27318025D01*
X51501990Y-27369362D01*
X51500825Y-27370988D01*
X51498835Y-27370792D01*
X51498000Y-27369166D01*
X51498000Y-27285029D01*
X51498010Y-27284833D01*
X51501944Y-27244889D01*
X51502020Y-27244504D01*
X51511881Y-27211995D01*
X51512031Y-27211633D01*
X51528045Y-27181675D01*
X51528263Y-27181349D01*
X51549813Y-27155090D01*
X51550090Y-27154813D01*
X51576349Y-27133263D01*
X51576675Y-27133045D01*
X51606633Y-27117031D01*
X51606995Y-27116881D01*
X51639504Y-27107020D01*
X51639889Y-27106944D01*
X51679833Y-27103010D01*
X51680029Y-27103000D01*
X51764166Y-27103000D01*
X51765898Y-27104000D01*
G37*
G36*
X53222167Y-27103010D02*
G01*
X53262111Y-27106944D01*
X53262496Y-27107020D01*
X53295005Y-27116881D01*
X53295367Y-27117031D01*
X53325325Y-27133045D01*
X53325651Y-27133263D01*
X53351910Y-27154813D01*
X53352187Y-27155090D01*
X53373737Y-27181349D01*
X53373955Y-27181675D01*
X53389969Y-27211633D01*
X53390119Y-27211995D01*
X53399980Y-27244504D01*
X53400056Y-27244889D01*
X53403990Y-27284833D01*
X53404000Y-27285029D01*
X53404000Y-27369166D01*
X53403000Y-27370898D01*
X53401000Y-27370898D01*
X53400010Y-27369362D01*
X53394954Y-27318025D01*
X53380035Y-27268843D01*
X53355809Y-27223519D01*
X53323207Y-27183793D01*
X53283481Y-27151191D01*
X53238157Y-27126965D01*
X53188975Y-27112046D01*
X53137638Y-27106990D01*
X53136012Y-27105825D01*
X53136208Y-27103835D01*
X53137834Y-27103000D01*
X53221971Y-27103000D01*
X53222167Y-27103010D01*
G37*
M02*
