G04 #@! TF.GenerationSoftware,KiCad,Pcbnew,5.1.6-c6e7f7d~86~ubuntu19.10.1*
G04 #@! TF.CreationDate,2020-05-21T11:58:36+02:00*
G04 #@! TF.ProjectId,Microscope_LED,4d696372-6f73-4636-9f70-655f4c45442e,rev?*
G04 #@! TF.SameCoordinates,Original*
G04 #@! TF.FileFunction,Soldermask,Top*
G04 #@! TF.FilePolarity,Negative*
%FSLAX46Y46*%
G04 Gerber Fmt 4.6, Leading zero omitted, Abs format (unit mm)*
G04 Created by KiCad (PCBNEW 5.1.6-c6e7f7d~86~ubuntu19.10.1) date 2020-05-21 11:58:36*
%MOMM*%
%LPD*%
G01*
G04 APERTURE LIST*
%ADD10C,0.100000*%
G04 APERTURE END LIST*
D10*
G36*
X27906000Y-40860000D02*
G01*
X26704000Y-40860000D01*
X26704000Y-39658000D01*
X27906000Y-39658000D01*
X27906000Y-40860000D01*
G37*
G36*
X25106000Y-40860000D02*
G01*
X23904000Y-40860000D01*
X23904000Y-39658000D01*
X25106000Y-39658000D01*
X25106000Y-40860000D01*
G37*
G36*
X52946730Y-36490000D02*
G01*
X53059579Y-36512447D01*
X53360042Y-36636903D01*
X53630451Y-36817585D01*
X53860415Y-37047549D01*
X53860416Y-37047551D01*
X54041098Y-37317960D01*
X54165553Y-37618422D01*
X54222407Y-37904243D01*
X54229000Y-37937391D01*
X54229000Y-38262609D01*
X54165553Y-38581579D01*
X54041097Y-38882042D01*
X53860415Y-39152451D01*
X53630451Y-39382415D01*
X53360042Y-39563097D01*
X53360041Y-39563098D01*
X53360040Y-39563098D01*
X53304749Y-39586000D01*
X53059579Y-39687553D01*
X52953256Y-39708702D01*
X52740611Y-39751000D01*
X52415389Y-39751000D01*
X52202744Y-39708702D01*
X52096421Y-39687553D01*
X51851251Y-39586000D01*
X51795960Y-39563098D01*
X51795959Y-39563098D01*
X51795958Y-39563097D01*
X51525549Y-39382415D01*
X51295585Y-39152451D01*
X51114903Y-38882042D01*
X50990447Y-38581579D01*
X50927000Y-38262609D01*
X50927000Y-37937391D01*
X50933594Y-37904243D01*
X50990447Y-37618422D01*
X51114902Y-37317960D01*
X51295584Y-37047551D01*
X51295585Y-37047549D01*
X51525549Y-36817585D01*
X51795958Y-36636903D01*
X52096421Y-36512447D01*
X52209270Y-36490000D01*
X52415389Y-36449000D01*
X52740611Y-36449000D01*
X52946730Y-36490000D01*
G37*
G36*
X20561730Y-36490000D02*
G01*
X20674579Y-36512447D01*
X20975042Y-36636903D01*
X21245451Y-36817585D01*
X21475415Y-37047549D01*
X21475416Y-37047551D01*
X21656098Y-37317960D01*
X21780553Y-37618422D01*
X21837407Y-37904243D01*
X21844000Y-37937391D01*
X21844000Y-38262609D01*
X21780553Y-38581579D01*
X21656097Y-38882042D01*
X21475415Y-39152451D01*
X21245451Y-39382415D01*
X20975042Y-39563097D01*
X20975041Y-39563098D01*
X20975040Y-39563098D01*
X20919749Y-39586000D01*
X20674579Y-39687553D01*
X20568256Y-39708702D01*
X20355611Y-39751000D01*
X20030389Y-39751000D01*
X19817744Y-39708702D01*
X19711421Y-39687553D01*
X19466251Y-39586000D01*
X19410960Y-39563098D01*
X19410959Y-39563098D01*
X19410958Y-39563097D01*
X19140549Y-39382415D01*
X18910585Y-39152451D01*
X18729903Y-38882042D01*
X18605447Y-38581579D01*
X18542000Y-38262609D01*
X18542000Y-37937391D01*
X18548594Y-37904243D01*
X18605447Y-37618422D01*
X18729902Y-37317960D01*
X18910584Y-37047551D01*
X18910585Y-37047549D01*
X19140549Y-36817585D01*
X19410958Y-36636903D01*
X19711421Y-36512447D01*
X19824270Y-36490000D01*
X20030389Y-36449000D01*
X20355611Y-36449000D01*
X20561730Y-36490000D01*
G37*
G36*
X42157000Y-39689000D02*
G01*
X41155000Y-39689000D01*
X41155000Y-38787000D01*
X42157000Y-38787000D01*
X42157000Y-39689000D01*
G37*
G36*
X40394997Y-37888051D02*
G01*
X40428652Y-37898261D01*
X40459665Y-37914838D01*
X40486851Y-37937149D01*
X40509162Y-37964335D01*
X40525739Y-37995348D01*
X40535949Y-38029003D01*
X40540000Y-38070138D01*
X40540000Y-39399862D01*
X40535949Y-39440997D01*
X40525739Y-39474652D01*
X40509162Y-39505665D01*
X40486851Y-39532851D01*
X40459665Y-39555162D01*
X40428652Y-39571739D01*
X40394997Y-39581949D01*
X40353862Y-39586000D01*
X37624138Y-39586000D01*
X37583003Y-39581949D01*
X37549348Y-39571739D01*
X37518335Y-39555162D01*
X37491149Y-39532851D01*
X37468838Y-39505665D01*
X37452261Y-39474652D01*
X37442051Y-39440997D01*
X37438000Y-39399862D01*
X37438000Y-38070138D01*
X37442051Y-38029003D01*
X37452261Y-37995348D01*
X37468838Y-37964335D01*
X37491149Y-37937149D01*
X37518335Y-37914838D01*
X37549348Y-37898261D01*
X37583003Y-37888051D01*
X37624138Y-37884000D01*
X40353862Y-37884000D01*
X40394997Y-37888051D01*
G37*
G36*
X35994997Y-37888051D02*
G01*
X36028652Y-37898261D01*
X36059665Y-37914838D01*
X36086851Y-37937149D01*
X36109162Y-37964335D01*
X36125739Y-37995348D01*
X36135949Y-38029003D01*
X36140000Y-38070138D01*
X36140000Y-39399862D01*
X36135949Y-39440997D01*
X36125739Y-39474652D01*
X36109162Y-39505665D01*
X36086851Y-39532851D01*
X36059665Y-39555162D01*
X36028652Y-39571739D01*
X35994997Y-39581949D01*
X35953862Y-39586000D01*
X33224138Y-39586000D01*
X33183003Y-39581949D01*
X33149348Y-39571739D01*
X33118335Y-39555162D01*
X33091149Y-39532851D01*
X33068838Y-39505665D01*
X33052261Y-39474652D01*
X33042051Y-39440997D01*
X33038000Y-39399862D01*
X33038000Y-38070138D01*
X33042051Y-38029003D01*
X33052261Y-37995348D01*
X33068838Y-37964335D01*
X33091149Y-37937149D01*
X33118335Y-37914838D01*
X33149348Y-37898261D01*
X33183003Y-37888051D01*
X33224138Y-37884000D01*
X35953862Y-37884000D01*
X35994997Y-37888051D01*
G37*
G36*
X44157000Y-38739000D02*
G01*
X43155000Y-38739000D01*
X43155000Y-37837000D01*
X44157000Y-37837000D01*
X44157000Y-38739000D01*
G37*
G36*
X27531000Y-38447000D02*
G01*
X26329000Y-38447000D01*
X26329000Y-37245000D01*
X27531000Y-37245000D01*
X27531000Y-38447000D01*
G37*
G36*
X24731000Y-38447000D02*
G01*
X23529000Y-38447000D01*
X23529000Y-37245000D01*
X24731000Y-37245000D01*
X24731000Y-38447000D01*
G37*
G36*
X42157000Y-37789000D02*
G01*
X41155000Y-37789000D01*
X41155000Y-36887000D01*
X42157000Y-36887000D01*
X42157000Y-37789000D01*
G37*
G36*
X29417674Y-35464465D02*
G01*
X29455367Y-35475899D01*
X29490103Y-35494466D01*
X29520548Y-35519452D01*
X29545534Y-35549897D01*
X29564101Y-35584633D01*
X29575535Y-35622326D01*
X29580000Y-35667661D01*
X29580000Y-36504339D01*
X29575535Y-36549674D01*
X29564101Y-36587367D01*
X29545534Y-36622103D01*
X29520548Y-36652548D01*
X29490103Y-36677534D01*
X29455367Y-36696101D01*
X29417674Y-36707535D01*
X29372339Y-36712000D01*
X28285661Y-36712000D01*
X28240326Y-36707535D01*
X28202633Y-36696101D01*
X28167897Y-36677534D01*
X28137452Y-36652548D01*
X28112466Y-36622103D01*
X28093899Y-36587367D01*
X28082465Y-36549674D01*
X28078000Y-36504339D01*
X28078000Y-35667661D01*
X28082465Y-35622326D01*
X28093899Y-35584633D01*
X28112466Y-35549897D01*
X28137452Y-35519452D01*
X28167897Y-35494466D01*
X28202633Y-35475899D01*
X28240326Y-35464465D01*
X28285661Y-35460000D01*
X29372339Y-35460000D01*
X29417674Y-35464465D01*
G37*
G36*
X33492674Y-35194465D02*
G01*
X33530367Y-35205899D01*
X33565103Y-35224466D01*
X33595548Y-35249452D01*
X33620534Y-35279897D01*
X33639101Y-35314633D01*
X33650535Y-35352326D01*
X33655000Y-35397661D01*
X33655000Y-36484339D01*
X33650535Y-36529674D01*
X33639101Y-36567367D01*
X33620534Y-36602103D01*
X33595548Y-36632548D01*
X33565103Y-36657534D01*
X33530367Y-36676101D01*
X33492674Y-36687535D01*
X33447339Y-36692000D01*
X32610661Y-36692000D01*
X32565326Y-36687535D01*
X32527633Y-36676101D01*
X32492897Y-36657534D01*
X32462452Y-36632548D01*
X32437466Y-36602103D01*
X32418899Y-36567367D01*
X32407465Y-36529674D01*
X32403000Y-36484339D01*
X32403000Y-35397661D01*
X32407465Y-35352326D01*
X32418899Y-35314633D01*
X32437466Y-35279897D01*
X32462452Y-35249452D01*
X32492897Y-35224466D01*
X32527633Y-35205899D01*
X32565326Y-35194465D01*
X32610661Y-35190000D01*
X33447339Y-35190000D01*
X33492674Y-35194465D01*
G37*
G36*
X31442674Y-35194465D02*
G01*
X31480367Y-35205899D01*
X31515103Y-35224466D01*
X31545548Y-35249452D01*
X31570534Y-35279897D01*
X31589101Y-35314633D01*
X31600535Y-35352326D01*
X31605000Y-35397661D01*
X31605000Y-36484339D01*
X31600535Y-36529674D01*
X31589101Y-36567367D01*
X31570534Y-36602103D01*
X31545548Y-36632548D01*
X31515103Y-36657534D01*
X31480367Y-36676101D01*
X31442674Y-36687535D01*
X31397339Y-36692000D01*
X30560661Y-36692000D01*
X30515326Y-36687535D01*
X30477633Y-36676101D01*
X30442897Y-36657534D01*
X30412452Y-36632548D01*
X30387466Y-36602103D01*
X30368899Y-36567367D01*
X30357465Y-36529674D01*
X30353000Y-36484339D01*
X30353000Y-35397661D01*
X30357465Y-35352326D01*
X30368899Y-35314633D01*
X30387466Y-35279897D01*
X30412452Y-35249452D01*
X30442897Y-35224466D01*
X30477633Y-35205899D01*
X30515326Y-35194465D01*
X30560661Y-35190000D01*
X31397339Y-35190000D01*
X31442674Y-35194465D01*
G37*
G36*
X46615604Y-35142347D02*
G01*
X46652144Y-35153432D01*
X46685821Y-35171433D01*
X46715341Y-35195659D01*
X46739567Y-35225179D01*
X46757568Y-35258856D01*
X46768653Y-35295396D01*
X46773000Y-35339538D01*
X46773000Y-36288462D01*
X46768653Y-36332604D01*
X46757568Y-36369144D01*
X46739567Y-36402821D01*
X46715341Y-36432341D01*
X46685821Y-36456567D01*
X46652144Y-36474568D01*
X46615604Y-36485653D01*
X46571462Y-36490000D01*
X45122538Y-36490000D01*
X45078396Y-36485653D01*
X45041856Y-36474568D01*
X45008179Y-36456567D01*
X44978659Y-36432341D01*
X44954433Y-36402821D01*
X44936432Y-36369144D01*
X44925347Y-36332604D01*
X44921000Y-36288462D01*
X44921000Y-35339538D01*
X44925347Y-35295396D01*
X44936432Y-35258856D01*
X44954433Y-35225179D01*
X44978659Y-35195659D01*
X45008179Y-35171433D01*
X45041856Y-35153432D01*
X45078396Y-35142347D01*
X45122538Y-35138000D01*
X46571462Y-35138000D01*
X46615604Y-35142347D01*
G37*
G36*
X44042674Y-34559465D02*
G01*
X44080367Y-34570899D01*
X44115103Y-34589466D01*
X44145548Y-34614452D01*
X44170534Y-34644897D01*
X44189101Y-34679633D01*
X44200535Y-34717326D01*
X44205000Y-34762661D01*
X44205000Y-35849339D01*
X44200535Y-35894674D01*
X44189101Y-35932367D01*
X44170534Y-35967103D01*
X44145548Y-35997548D01*
X44115103Y-36022534D01*
X44080367Y-36041101D01*
X44042674Y-36052535D01*
X43997339Y-36057000D01*
X43160661Y-36057000D01*
X43115326Y-36052535D01*
X43077633Y-36041101D01*
X43042897Y-36022534D01*
X43012452Y-35997548D01*
X42987466Y-35967103D01*
X42968899Y-35932367D01*
X42957465Y-35894674D01*
X42953000Y-35849339D01*
X42953000Y-34762661D01*
X42957465Y-34717326D01*
X42968899Y-34679633D01*
X42987466Y-34644897D01*
X43012452Y-34614452D01*
X43042897Y-34589466D01*
X43077633Y-34570899D01*
X43115326Y-34559465D01*
X43160661Y-34555000D01*
X43997339Y-34555000D01*
X44042674Y-34559465D01*
G37*
G36*
X41992674Y-34559465D02*
G01*
X42030367Y-34570899D01*
X42065103Y-34589466D01*
X42095548Y-34614452D01*
X42120534Y-34644897D01*
X42139101Y-34679633D01*
X42150535Y-34717326D01*
X42155000Y-34762661D01*
X42155000Y-35849339D01*
X42150535Y-35894674D01*
X42139101Y-35932367D01*
X42120534Y-35967103D01*
X42095548Y-35997548D01*
X42065103Y-36022534D01*
X42030367Y-36041101D01*
X41992674Y-36052535D01*
X41947339Y-36057000D01*
X41110661Y-36057000D01*
X41065326Y-36052535D01*
X41027633Y-36041101D01*
X40992897Y-36022534D01*
X40962452Y-35997548D01*
X40937466Y-35967103D01*
X40918899Y-35932367D01*
X40907465Y-35894674D01*
X40903000Y-35849339D01*
X40903000Y-34762661D01*
X40907465Y-34717326D01*
X40918899Y-34679633D01*
X40937466Y-34644897D01*
X40962452Y-34614452D01*
X40992897Y-34589466D01*
X41027633Y-34570899D01*
X41065326Y-34559465D01*
X41110661Y-34555000D01*
X41947339Y-34555000D01*
X41992674Y-34559465D01*
G37*
G36*
X39831674Y-34321465D02*
G01*
X39869367Y-34332899D01*
X39904103Y-34351466D01*
X39934548Y-34376452D01*
X39959534Y-34406897D01*
X39978101Y-34441633D01*
X39989535Y-34479326D01*
X39994000Y-34524661D01*
X39994000Y-35361339D01*
X39989535Y-35406674D01*
X39978101Y-35444367D01*
X39959534Y-35479103D01*
X39934548Y-35509548D01*
X39904103Y-35534534D01*
X39869367Y-35553101D01*
X39831674Y-35564535D01*
X39786339Y-35569000D01*
X38699661Y-35569000D01*
X38654326Y-35564535D01*
X38616633Y-35553101D01*
X38581897Y-35534534D01*
X38551452Y-35509548D01*
X38526466Y-35479103D01*
X38507899Y-35444367D01*
X38496465Y-35406674D01*
X38492000Y-35361339D01*
X38492000Y-34524661D01*
X38496465Y-34479326D01*
X38507899Y-34441633D01*
X38526466Y-34406897D01*
X38551452Y-34376452D01*
X38581897Y-34351466D01*
X38616633Y-34332899D01*
X38654326Y-34321465D01*
X38699661Y-34317000D01*
X39786339Y-34317000D01*
X39831674Y-34321465D01*
G37*
G36*
X29417674Y-33414465D02*
G01*
X29455367Y-33425899D01*
X29490103Y-33444466D01*
X29520548Y-33469452D01*
X29545534Y-33499897D01*
X29564101Y-33534633D01*
X29575535Y-33572326D01*
X29580000Y-33617661D01*
X29580000Y-34454339D01*
X29575535Y-34499674D01*
X29564101Y-34537367D01*
X29545534Y-34572103D01*
X29520548Y-34602548D01*
X29490103Y-34627534D01*
X29455367Y-34646101D01*
X29417674Y-34657535D01*
X29372339Y-34662000D01*
X28285661Y-34662000D01*
X28240326Y-34657535D01*
X28202633Y-34646101D01*
X28167897Y-34627534D01*
X28137452Y-34602548D01*
X28112466Y-34572103D01*
X28093899Y-34537367D01*
X28082465Y-34499674D01*
X28078000Y-34454339D01*
X28078000Y-33617661D01*
X28082465Y-33572326D01*
X28093899Y-33534633D01*
X28112466Y-33499897D01*
X28137452Y-33469452D01*
X28167897Y-33444466D01*
X28202633Y-33425899D01*
X28240326Y-33414465D01*
X28285661Y-33410000D01*
X29372339Y-33410000D01*
X29417674Y-33414465D01*
G37*
G36*
X37256928Y-33687764D02*
G01*
X37278009Y-33694160D01*
X37297445Y-33704548D01*
X37314476Y-33718524D01*
X37328452Y-33735555D01*
X37338840Y-33754991D01*
X37345236Y-33776072D01*
X37348000Y-33804140D01*
X37348000Y-34267860D01*
X37345236Y-34295928D01*
X37338840Y-34317009D01*
X37328452Y-34336445D01*
X37314476Y-34353476D01*
X37297445Y-34367452D01*
X37278009Y-34377840D01*
X37256928Y-34384236D01*
X37228860Y-34387000D01*
X35415140Y-34387000D01*
X35387072Y-34384236D01*
X35365991Y-34377840D01*
X35346555Y-34367452D01*
X35329524Y-34353476D01*
X35315548Y-34336445D01*
X35305160Y-34317009D01*
X35298764Y-34295928D01*
X35296000Y-34267860D01*
X35296000Y-33804140D01*
X35298764Y-33776072D01*
X35305160Y-33754991D01*
X35315548Y-33735555D01*
X35329524Y-33718524D01*
X35346555Y-33704548D01*
X35365991Y-33694160D01*
X35387072Y-33687764D01*
X35415140Y-33685000D01*
X37228860Y-33685000D01*
X37256928Y-33687764D01*
G37*
G36*
X32306928Y-33687764D02*
G01*
X32328009Y-33694160D01*
X32347445Y-33704548D01*
X32364476Y-33718524D01*
X32378452Y-33735555D01*
X32388840Y-33754991D01*
X32395236Y-33776072D01*
X32398000Y-33804140D01*
X32398000Y-34267860D01*
X32395236Y-34295928D01*
X32388840Y-34317009D01*
X32378452Y-34336445D01*
X32364476Y-34353476D01*
X32347445Y-34367452D01*
X32328009Y-34377840D01*
X32306928Y-34384236D01*
X32278860Y-34387000D01*
X30465140Y-34387000D01*
X30437072Y-34384236D01*
X30415991Y-34377840D01*
X30396555Y-34367452D01*
X30379524Y-34353476D01*
X30365548Y-34336445D01*
X30355160Y-34317009D01*
X30348764Y-34295928D01*
X30346000Y-34267860D01*
X30346000Y-33804140D01*
X30348764Y-33776072D01*
X30355160Y-33754991D01*
X30365548Y-33735555D01*
X30379524Y-33718524D01*
X30396555Y-33704548D01*
X30415991Y-33694160D01*
X30437072Y-33687764D01*
X30465140Y-33685000D01*
X32278860Y-33685000D01*
X32306928Y-33687764D01*
G37*
G36*
X41992674Y-32400465D02*
G01*
X42030367Y-32411899D01*
X42065103Y-32430466D01*
X42095548Y-32455452D01*
X42120534Y-32485897D01*
X42139101Y-32520633D01*
X42150535Y-32558326D01*
X42155000Y-32603661D01*
X42155000Y-33690339D01*
X42150535Y-33735674D01*
X42139101Y-33773367D01*
X42120534Y-33808103D01*
X42095548Y-33838548D01*
X42065103Y-33863534D01*
X42030367Y-33882101D01*
X41992674Y-33893535D01*
X41947339Y-33898000D01*
X41110661Y-33898000D01*
X41065326Y-33893535D01*
X41027633Y-33882101D01*
X40992897Y-33863534D01*
X40962452Y-33838548D01*
X40937466Y-33808103D01*
X40918899Y-33773367D01*
X40907465Y-33735674D01*
X40903000Y-33690339D01*
X40903000Y-32603661D01*
X40907465Y-32558326D01*
X40918899Y-32520633D01*
X40937466Y-32485897D01*
X40962452Y-32455452D01*
X40992897Y-32430466D01*
X41027633Y-32411899D01*
X41065326Y-32400465D01*
X41110661Y-32396000D01*
X41947339Y-32396000D01*
X41992674Y-32400465D01*
G37*
G36*
X44042674Y-32400465D02*
G01*
X44080367Y-32411899D01*
X44115103Y-32430466D01*
X44145548Y-32455452D01*
X44170534Y-32485897D01*
X44189101Y-32520633D01*
X44200535Y-32558326D01*
X44205000Y-32603661D01*
X44205000Y-33690339D01*
X44200535Y-33735674D01*
X44189101Y-33773367D01*
X44170534Y-33808103D01*
X44145548Y-33838548D01*
X44115103Y-33863534D01*
X44080367Y-33882101D01*
X44042674Y-33893535D01*
X43997339Y-33898000D01*
X43160661Y-33898000D01*
X43115326Y-33893535D01*
X43077633Y-33882101D01*
X43042897Y-33863534D01*
X43012452Y-33838548D01*
X42987466Y-33808103D01*
X42968899Y-33773367D01*
X42957465Y-33735674D01*
X42953000Y-33690339D01*
X42953000Y-32603661D01*
X42957465Y-32558326D01*
X42968899Y-32520633D01*
X42987466Y-32485897D01*
X43012452Y-32455452D01*
X43042897Y-32430466D01*
X43077633Y-32411899D01*
X43115326Y-32400465D01*
X43160661Y-32396000D01*
X43997339Y-32396000D01*
X44042674Y-32400465D01*
G37*
G36*
X46615604Y-32342347D02*
G01*
X46652144Y-32353432D01*
X46685821Y-32371433D01*
X46715341Y-32395659D01*
X46739567Y-32425179D01*
X46757568Y-32458856D01*
X46768653Y-32495396D01*
X46773000Y-32539538D01*
X46773000Y-33488462D01*
X46768653Y-33532604D01*
X46757568Y-33569144D01*
X46739567Y-33602821D01*
X46715341Y-33632341D01*
X46685821Y-33656567D01*
X46652144Y-33674568D01*
X46615604Y-33685653D01*
X46571462Y-33690000D01*
X45122538Y-33690000D01*
X45078396Y-33685653D01*
X45041856Y-33674568D01*
X45008179Y-33656567D01*
X44978659Y-33632341D01*
X44954433Y-33602821D01*
X44936432Y-33569144D01*
X44925347Y-33532604D01*
X44921000Y-33488462D01*
X44921000Y-32539538D01*
X44925347Y-32495396D01*
X44936432Y-32458856D01*
X44954433Y-32425179D01*
X44978659Y-32395659D01*
X45008179Y-32371433D01*
X45041856Y-32353432D01*
X45078396Y-32342347D01*
X45122538Y-32338000D01*
X46571462Y-32338000D01*
X46615604Y-32342347D01*
G37*
G36*
X39831674Y-32271465D02*
G01*
X39869367Y-32282899D01*
X39904103Y-32301466D01*
X39934548Y-32326452D01*
X39959534Y-32356897D01*
X39978101Y-32391633D01*
X39989535Y-32429326D01*
X39994000Y-32474661D01*
X39994000Y-33311339D01*
X39989535Y-33356674D01*
X39978101Y-33394367D01*
X39959534Y-33429103D01*
X39934548Y-33459548D01*
X39904103Y-33484534D01*
X39869367Y-33503101D01*
X39831674Y-33514535D01*
X39786339Y-33519000D01*
X38699661Y-33519000D01*
X38654326Y-33514535D01*
X38616633Y-33503101D01*
X38581897Y-33484534D01*
X38551452Y-33459548D01*
X38526466Y-33429103D01*
X38507899Y-33394367D01*
X38496465Y-33356674D01*
X38492000Y-33311339D01*
X38492000Y-32474661D01*
X38496465Y-32429326D01*
X38507899Y-32391633D01*
X38526466Y-32356897D01*
X38551452Y-32326452D01*
X38581897Y-32301466D01*
X38616633Y-32282899D01*
X38654326Y-32271465D01*
X38699661Y-32267000D01*
X39786339Y-32267000D01*
X39831674Y-32271465D01*
G37*
G36*
X32306928Y-32417764D02*
G01*
X32328009Y-32424160D01*
X32347445Y-32434548D01*
X32364476Y-32448524D01*
X32378452Y-32465555D01*
X32388840Y-32484991D01*
X32395236Y-32506072D01*
X32398000Y-32534140D01*
X32398000Y-32997860D01*
X32395236Y-33025928D01*
X32388840Y-33047009D01*
X32378452Y-33066445D01*
X32364476Y-33083476D01*
X32347445Y-33097452D01*
X32328009Y-33107840D01*
X32306928Y-33114236D01*
X32278860Y-33117000D01*
X30465140Y-33117000D01*
X30437072Y-33114236D01*
X30415991Y-33107840D01*
X30396555Y-33097452D01*
X30379524Y-33083476D01*
X30365548Y-33066445D01*
X30355160Y-33047009D01*
X30348764Y-33025928D01*
X30346000Y-32997860D01*
X30346000Y-32534140D01*
X30348764Y-32506072D01*
X30355160Y-32484991D01*
X30365548Y-32465555D01*
X30379524Y-32448524D01*
X30396555Y-32434548D01*
X30415991Y-32424160D01*
X30437072Y-32417764D01*
X30465140Y-32415000D01*
X32278860Y-32415000D01*
X32306928Y-32417764D01*
G37*
G36*
X37256928Y-32417764D02*
G01*
X37278009Y-32424160D01*
X37297445Y-32434548D01*
X37314476Y-32448524D01*
X37328452Y-32465555D01*
X37338840Y-32484991D01*
X37345236Y-32506072D01*
X37348000Y-32534140D01*
X37348000Y-32997860D01*
X37345236Y-33025928D01*
X37338840Y-33047009D01*
X37328452Y-33066445D01*
X37314476Y-33083476D01*
X37297445Y-33097452D01*
X37278009Y-33107840D01*
X37256928Y-33114236D01*
X37228860Y-33117000D01*
X35415140Y-33117000D01*
X35387072Y-33114236D01*
X35365991Y-33107840D01*
X35346555Y-33097452D01*
X35329524Y-33083476D01*
X35315548Y-33066445D01*
X35305160Y-33047009D01*
X35298764Y-33025928D01*
X35296000Y-32997860D01*
X35296000Y-32534140D01*
X35298764Y-32506072D01*
X35305160Y-32484991D01*
X35315548Y-32465555D01*
X35329524Y-32448524D01*
X35346555Y-32434548D01*
X35365991Y-32424160D01*
X35387072Y-32417764D01*
X35415140Y-32415000D01*
X37228860Y-32415000D01*
X37256928Y-32417764D01*
G37*
G36*
X24229564Y-30993389D02*
G01*
X24420833Y-31072615D01*
X24420835Y-31072616D01*
X24529165Y-31145000D01*
X24592973Y-31187635D01*
X24739365Y-31334027D01*
X24854385Y-31506167D01*
X24933611Y-31697436D01*
X24974000Y-31900484D01*
X24974000Y-32107516D01*
X24933611Y-32310564D01*
X24865640Y-32474661D01*
X24854384Y-32501835D01*
X24739365Y-32673973D01*
X24592973Y-32820365D01*
X24420835Y-32935384D01*
X24420834Y-32935385D01*
X24420833Y-32935385D01*
X24229564Y-33014611D01*
X24026516Y-33055000D01*
X23819484Y-33055000D01*
X23616436Y-33014611D01*
X23425167Y-32935385D01*
X23425166Y-32935385D01*
X23425165Y-32935384D01*
X23253027Y-32820365D01*
X23106635Y-32673973D01*
X22991616Y-32501835D01*
X22980360Y-32474661D01*
X22912389Y-32310564D01*
X22872000Y-32107516D01*
X22872000Y-31900484D01*
X22912389Y-31697436D01*
X22991615Y-31506167D01*
X23106635Y-31334027D01*
X23253027Y-31187635D01*
X23316835Y-31145000D01*
X23425165Y-31072616D01*
X23425167Y-31072615D01*
X23616436Y-30993389D01*
X23819484Y-30953000D01*
X24026516Y-30953000D01*
X24229564Y-30993389D01*
G37*
G36*
X19229564Y-30993389D02*
G01*
X19420833Y-31072615D01*
X19420835Y-31072616D01*
X19529165Y-31145000D01*
X19592973Y-31187635D01*
X19739365Y-31334027D01*
X19854385Y-31506167D01*
X19933611Y-31697436D01*
X19974000Y-31900484D01*
X19974000Y-32107516D01*
X19933611Y-32310564D01*
X19865640Y-32474661D01*
X19854384Y-32501835D01*
X19739365Y-32673973D01*
X19592973Y-32820365D01*
X19420835Y-32935384D01*
X19420834Y-32935385D01*
X19420833Y-32935385D01*
X19229564Y-33014611D01*
X19026516Y-33055000D01*
X18819484Y-33055000D01*
X18616436Y-33014611D01*
X18425167Y-32935385D01*
X18425166Y-32935385D01*
X18425165Y-32935384D01*
X18253027Y-32820365D01*
X18106635Y-32673973D01*
X17991616Y-32501835D01*
X17980360Y-32474661D01*
X17912389Y-32310564D01*
X17872000Y-32107516D01*
X17872000Y-31900484D01*
X17912389Y-31697436D01*
X17991615Y-31506167D01*
X18106635Y-31334027D01*
X18253027Y-31187635D01*
X18316835Y-31145000D01*
X18425165Y-31072616D01*
X18425167Y-31072615D01*
X18616436Y-30993389D01*
X18819484Y-30953000D01*
X19026516Y-30953000D01*
X19229564Y-30993389D01*
G37*
G36*
X29417674Y-31636465D02*
G01*
X29455367Y-31647899D01*
X29490103Y-31666466D01*
X29520548Y-31691452D01*
X29545534Y-31721897D01*
X29564101Y-31756633D01*
X29575535Y-31794326D01*
X29580000Y-31839661D01*
X29580000Y-32676339D01*
X29575535Y-32721674D01*
X29564101Y-32759367D01*
X29545534Y-32794103D01*
X29520548Y-32824548D01*
X29490103Y-32849534D01*
X29455367Y-32868101D01*
X29417674Y-32879535D01*
X29372339Y-32884000D01*
X28285661Y-32884000D01*
X28240326Y-32879535D01*
X28202633Y-32868101D01*
X28167897Y-32849534D01*
X28137452Y-32824548D01*
X28112466Y-32794103D01*
X28093899Y-32759367D01*
X28082465Y-32721674D01*
X28078000Y-32676339D01*
X28078000Y-31839661D01*
X28082465Y-31794326D01*
X28093899Y-31756633D01*
X28112466Y-31721897D01*
X28137452Y-31691452D01*
X28167897Y-31666466D01*
X28202633Y-31647899D01*
X28240326Y-31636465D01*
X28285661Y-31632000D01*
X29372339Y-31632000D01*
X29417674Y-31636465D01*
G37*
G36*
X37256928Y-31147764D02*
G01*
X37278009Y-31154160D01*
X37297445Y-31164548D01*
X37314476Y-31178524D01*
X37328452Y-31195555D01*
X37338840Y-31214991D01*
X37345236Y-31236072D01*
X37348000Y-31264140D01*
X37348000Y-31727860D01*
X37345236Y-31755928D01*
X37338840Y-31777009D01*
X37328452Y-31796445D01*
X37314476Y-31813476D01*
X37297445Y-31827452D01*
X37278009Y-31837840D01*
X37256928Y-31844236D01*
X37228860Y-31847000D01*
X35415140Y-31847000D01*
X35387072Y-31844236D01*
X35365991Y-31837840D01*
X35346555Y-31827452D01*
X35329524Y-31813476D01*
X35315548Y-31796445D01*
X35305160Y-31777009D01*
X35298764Y-31755928D01*
X35296000Y-31727860D01*
X35296000Y-31264140D01*
X35298764Y-31236072D01*
X35305160Y-31214991D01*
X35315548Y-31195555D01*
X35329524Y-31178524D01*
X35346555Y-31164548D01*
X35365991Y-31154160D01*
X35387072Y-31147764D01*
X35415140Y-31145000D01*
X37228860Y-31145000D01*
X37256928Y-31147764D01*
G37*
G36*
X32306928Y-31147764D02*
G01*
X32328009Y-31154160D01*
X32347445Y-31164548D01*
X32364476Y-31178524D01*
X32378452Y-31195555D01*
X32388840Y-31214991D01*
X32395236Y-31236072D01*
X32398000Y-31264140D01*
X32398000Y-31727860D01*
X32395236Y-31755928D01*
X32388840Y-31777009D01*
X32378452Y-31796445D01*
X32364476Y-31813476D01*
X32347445Y-31827452D01*
X32328009Y-31837840D01*
X32306928Y-31844236D01*
X32278860Y-31847000D01*
X30465140Y-31847000D01*
X30437072Y-31844236D01*
X30415991Y-31837840D01*
X30396555Y-31827452D01*
X30379524Y-31813476D01*
X30365548Y-31796445D01*
X30355160Y-31777009D01*
X30348764Y-31755928D01*
X30346000Y-31727860D01*
X30346000Y-31264140D01*
X30348764Y-31236072D01*
X30355160Y-31214991D01*
X30365548Y-31195555D01*
X30379524Y-31178524D01*
X30396555Y-31164548D01*
X30415991Y-31154160D01*
X30437072Y-31147764D01*
X30465140Y-31145000D01*
X32278860Y-31145000D01*
X32306928Y-31147764D01*
G37*
G36*
X29417674Y-29586465D02*
G01*
X29455367Y-29597899D01*
X29490103Y-29616466D01*
X29520548Y-29641452D01*
X29545534Y-29671897D01*
X29564101Y-29706633D01*
X29575535Y-29744326D01*
X29580000Y-29789661D01*
X29580000Y-30626339D01*
X29575535Y-30671674D01*
X29564101Y-30709367D01*
X29545534Y-30744103D01*
X29520548Y-30774548D01*
X29490103Y-30799534D01*
X29455367Y-30818101D01*
X29417674Y-30829535D01*
X29372339Y-30834000D01*
X28285661Y-30834000D01*
X28240326Y-30829535D01*
X28202633Y-30818101D01*
X28167897Y-30799534D01*
X28137452Y-30774548D01*
X28112466Y-30744103D01*
X28093899Y-30709367D01*
X28082465Y-30671674D01*
X28078000Y-30626339D01*
X28078000Y-29789661D01*
X28082465Y-29744326D01*
X28093899Y-29706633D01*
X28112466Y-29671897D01*
X28137452Y-29641452D01*
X28167897Y-29616466D01*
X28202633Y-29597899D01*
X28240326Y-29586465D01*
X28285661Y-29582000D01*
X29372339Y-29582000D01*
X29417674Y-29586465D01*
G37*
G36*
X48827425Y-27118760D02*
G01*
X48827428Y-27118761D01*
X48827429Y-27118761D01*
X49006693Y-27173140D01*
X49006696Y-27173142D01*
X49006697Y-27173142D01*
X49171903Y-27261446D01*
X49316712Y-27380288D01*
X49435554Y-27525097D01*
X49523858Y-27690303D01*
X49523860Y-27690307D01*
X49568060Y-27836015D01*
X49578240Y-27869575D01*
X49592000Y-28009282D01*
X49592000Y-29902718D01*
X49578240Y-30042425D01*
X49578239Y-30042428D01*
X49578239Y-30042429D01*
X49523860Y-30221693D01*
X49523858Y-30221696D01*
X49523858Y-30221697D01*
X49435554Y-30386903D01*
X49316712Y-30531712D01*
X49171903Y-30650554D01*
X49023964Y-30729628D01*
X49006692Y-30738860D01*
X48827428Y-30793239D01*
X48827427Y-30793239D01*
X48827424Y-30793240D01*
X48641000Y-30811601D01*
X48454575Y-30793240D01*
X48454572Y-30793239D01*
X48454571Y-30793239D01*
X48275307Y-30738860D01*
X48257575Y-30729382D01*
X48110097Y-30650554D01*
X47965288Y-30531712D01*
X47846446Y-30386903D01*
X47758142Y-30221696D01*
X47758141Y-30221693D01*
X47758140Y-30221692D01*
X47703761Y-30042428D01*
X47703761Y-30042427D01*
X47703760Y-30042424D01*
X47690000Y-29902717D01*
X47690000Y-28009283D01*
X47703761Y-27869575D01*
X47713941Y-27836015D01*
X47758141Y-27690307D01*
X47758143Y-27690303D01*
X47846447Y-27525097D01*
X47965289Y-27380288D01*
X48110098Y-27261446D01*
X48275304Y-27173142D01*
X48275305Y-27173142D01*
X48275308Y-27173140D01*
X48454572Y-27118761D01*
X48454573Y-27118761D01*
X48454576Y-27118760D01*
X48641000Y-27100399D01*
X48827425Y-27118760D01*
G37*
G36*
X53261915Y-27108934D02*
G01*
X53294424Y-27118795D01*
X53324382Y-27134809D01*
X53350641Y-27156359D01*
X53372191Y-27182618D01*
X53388205Y-27212576D01*
X53398066Y-27245085D01*
X53402000Y-27285029D01*
X53402000Y-30626971D01*
X53398066Y-30666915D01*
X53388205Y-30699424D01*
X53372191Y-30729382D01*
X53350641Y-30755641D01*
X53324382Y-30777191D01*
X53294424Y-30793205D01*
X53261915Y-30803066D01*
X53221971Y-30807000D01*
X51680029Y-30807000D01*
X51640085Y-30803066D01*
X51607576Y-30793205D01*
X51577618Y-30777191D01*
X51551359Y-30755641D01*
X51529809Y-30729382D01*
X51513795Y-30699424D01*
X51503934Y-30666915D01*
X51500000Y-30626971D01*
X51500000Y-27285029D01*
X51503934Y-27245085D01*
X51513795Y-27212576D01*
X51529809Y-27182618D01*
X51551359Y-27156359D01*
X51577618Y-27134809D01*
X51607576Y-27118795D01*
X51640085Y-27108934D01*
X51680029Y-27105000D01*
X53221971Y-27105000D01*
X53261915Y-27108934D01*
G37*
G36*
X37256928Y-29877764D02*
G01*
X37278009Y-29884160D01*
X37297445Y-29894548D01*
X37314476Y-29908524D01*
X37328452Y-29925555D01*
X37338840Y-29944991D01*
X37345236Y-29966072D01*
X37348000Y-29994140D01*
X37348000Y-30457860D01*
X37345236Y-30485928D01*
X37338840Y-30507009D01*
X37328452Y-30526445D01*
X37314476Y-30543476D01*
X37297445Y-30557452D01*
X37278009Y-30567840D01*
X37256928Y-30574236D01*
X37228860Y-30577000D01*
X35415140Y-30577000D01*
X35387072Y-30574236D01*
X35365991Y-30567840D01*
X35346555Y-30557452D01*
X35329524Y-30543476D01*
X35315548Y-30526445D01*
X35305160Y-30507009D01*
X35298764Y-30485928D01*
X35296000Y-30457860D01*
X35296000Y-29994140D01*
X35298764Y-29966072D01*
X35305160Y-29944991D01*
X35315548Y-29925555D01*
X35329524Y-29908524D01*
X35346555Y-29894548D01*
X35365991Y-29884160D01*
X35387072Y-29877764D01*
X35415140Y-29875000D01*
X37228860Y-29875000D01*
X37256928Y-29877764D01*
G37*
G36*
X32306928Y-29877764D02*
G01*
X32328009Y-29884160D01*
X32347445Y-29894548D01*
X32364476Y-29908524D01*
X32378452Y-29925555D01*
X32388840Y-29944991D01*
X32395236Y-29966072D01*
X32398000Y-29994140D01*
X32398000Y-30457860D01*
X32395236Y-30485928D01*
X32388840Y-30507009D01*
X32378452Y-30526445D01*
X32364476Y-30543476D01*
X32347445Y-30557452D01*
X32328009Y-30567840D01*
X32306928Y-30574236D01*
X32278860Y-30577000D01*
X30465140Y-30577000D01*
X30437072Y-30574236D01*
X30415991Y-30567840D01*
X30396555Y-30557452D01*
X30379524Y-30543476D01*
X30365548Y-30526445D01*
X30355160Y-30507009D01*
X30348764Y-30485928D01*
X30346000Y-30457860D01*
X30346000Y-29994140D01*
X30348764Y-29966072D01*
X30355160Y-29944991D01*
X30365548Y-29925555D01*
X30379524Y-29908524D01*
X30396555Y-29894548D01*
X30415991Y-29884160D01*
X30437072Y-29877764D01*
X30465140Y-29875000D01*
X32278860Y-29875000D01*
X32306928Y-29877764D01*
G37*
G36*
X40875015Y-26084973D02*
G01*
X40978879Y-26116479D01*
X41006055Y-26131005D01*
X41074600Y-26167643D01*
X41158501Y-26236499D01*
X41227357Y-26320400D01*
X41246354Y-26355942D01*
X41278521Y-26416121D01*
X41310027Y-26519985D01*
X41318000Y-26600933D01*
X41318000Y-27755067D01*
X41310027Y-27836015D01*
X41278521Y-27939879D01*
X41266511Y-27962347D01*
X41241422Y-28009286D01*
X41227356Y-28035600D01*
X41158501Y-28119501D01*
X41089645Y-28176009D01*
X41074599Y-28188357D01*
X41022907Y-28215987D01*
X40978878Y-28239521D01*
X40875014Y-28271027D01*
X40767000Y-28281666D01*
X40658985Y-28271027D01*
X40555121Y-28239521D01*
X40511093Y-28215987D01*
X40459401Y-28188357D01*
X40446643Y-28177887D01*
X40375499Y-28119501D01*
X40306644Y-28035600D01*
X40283234Y-27991804D01*
X40269625Y-27971436D01*
X40252298Y-27954109D01*
X40231924Y-27940495D01*
X40209285Y-27931118D01*
X40185252Y-27926337D01*
X40160748Y-27926337D01*
X40136714Y-27931117D01*
X40114076Y-27940494D01*
X40093701Y-27954108D01*
X40076374Y-27971435D01*
X40062760Y-27991809D01*
X40053383Y-28014448D01*
X40048602Y-28038481D01*
X40048000Y-28050734D01*
X40048000Y-28869000D01*
X32846000Y-28869000D01*
X32846000Y-28050735D01*
X32843598Y-28026349D01*
X32836485Y-28002900D01*
X32824934Y-27981289D01*
X32809389Y-27962347D01*
X32790447Y-27946802D01*
X32768836Y-27935251D01*
X32745387Y-27928138D01*
X32721001Y-27925736D01*
X32696615Y-27928138D01*
X32673166Y-27935251D01*
X32651555Y-27946802D01*
X32632613Y-27962347D01*
X32617068Y-27981289D01*
X32610767Y-27991802D01*
X32601423Y-28009283D01*
X32587356Y-28035601D01*
X32556319Y-28073419D01*
X32518501Y-28119501D01*
X32449645Y-28176009D01*
X32434599Y-28188357D01*
X32382907Y-28215987D01*
X32338878Y-28239521D01*
X32235014Y-28271027D01*
X32127000Y-28281666D01*
X32018985Y-28271027D01*
X31915121Y-28239521D01*
X31871093Y-28215987D01*
X31819401Y-28188357D01*
X31806643Y-28177887D01*
X31735499Y-28119501D01*
X31666644Y-28035600D01*
X31652577Y-28009282D01*
X31615809Y-27940495D01*
X31615479Y-27939878D01*
X31583973Y-27836014D01*
X31576000Y-27755066D01*
X31576001Y-26600933D01*
X31583974Y-26519985D01*
X31615480Y-26416121D01*
X31647647Y-26355942D01*
X31666644Y-26320400D01*
X31735500Y-26236499D01*
X31819401Y-26167643D01*
X31887946Y-26131005D01*
X31915122Y-26116479D01*
X32018986Y-26084973D01*
X32127000Y-26074334D01*
X32235015Y-26084973D01*
X32338879Y-26116479D01*
X32366055Y-26131005D01*
X32434600Y-26167643D01*
X32518501Y-26236499D01*
X32587357Y-26320400D01*
X32606354Y-26355942D01*
X32638521Y-26416121D01*
X32670027Y-26519985D01*
X32678000Y-26600933D01*
X32678000Y-27192001D01*
X32680402Y-27216387D01*
X32687515Y-27239836D01*
X32699066Y-27261447D01*
X32714611Y-27280389D01*
X32733553Y-27295934D01*
X32755164Y-27307485D01*
X32778613Y-27314598D01*
X32802999Y-27317000D01*
X40091001Y-27317000D01*
X40115387Y-27314598D01*
X40138836Y-27307485D01*
X40160447Y-27295934D01*
X40179389Y-27280389D01*
X40194934Y-27261447D01*
X40206485Y-27239836D01*
X40213598Y-27216387D01*
X40216000Y-27192001D01*
X40216001Y-26600939D01*
X40216001Y-26600933D01*
X40223974Y-26519985D01*
X40255480Y-26416121D01*
X40287647Y-26355942D01*
X40306644Y-26320400D01*
X40375500Y-26236499D01*
X40459401Y-26167643D01*
X40527946Y-26131005D01*
X40555122Y-26116479D01*
X40658986Y-26084973D01*
X40767000Y-26074334D01*
X40875015Y-26084973D01*
G37*
G36*
X28521674Y-26558465D02*
G01*
X28559367Y-26569899D01*
X28594103Y-26588466D01*
X28624548Y-26613452D01*
X28649534Y-26643897D01*
X28668101Y-26678633D01*
X28679535Y-26716326D01*
X28684000Y-26761661D01*
X28684000Y-27848339D01*
X28679535Y-27893674D01*
X28668101Y-27931367D01*
X28649534Y-27966103D01*
X28624548Y-27996548D01*
X28594103Y-28021534D01*
X28559367Y-28040101D01*
X28521674Y-28051535D01*
X28476339Y-28056000D01*
X27639661Y-28056000D01*
X27594326Y-28051535D01*
X27556633Y-28040101D01*
X27521897Y-28021534D01*
X27491452Y-27996548D01*
X27466466Y-27966103D01*
X27447899Y-27931367D01*
X27436465Y-27893674D01*
X27432000Y-27848339D01*
X27432000Y-26761661D01*
X27436465Y-26716326D01*
X27447899Y-26678633D01*
X27466466Y-26643897D01*
X27491452Y-26613452D01*
X27521897Y-26588466D01*
X27556633Y-26569899D01*
X27594326Y-26558465D01*
X27639661Y-26554000D01*
X28476339Y-26554000D01*
X28521674Y-26558465D01*
G37*
G36*
X30571674Y-26558465D02*
G01*
X30609367Y-26569899D01*
X30644103Y-26588466D01*
X30674548Y-26613452D01*
X30699534Y-26643897D01*
X30718101Y-26678633D01*
X30729535Y-26716326D01*
X30734000Y-26761661D01*
X30734000Y-27848339D01*
X30729535Y-27893674D01*
X30718101Y-27931367D01*
X30699534Y-27966103D01*
X30674548Y-27996548D01*
X30644103Y-28021534D01*
X30609367Y-28040101D01*
X30571674Y-28051535D01*
X30526339Y-28056000D01*
X29689661Y-28056000D01*
X29644326Y-28051535D01*
X29606633Y-28040101D01*
X29571897Y-28021534D01*
X29541452Y-27996548D01*
X29516466Y-27966103D01*
X29497899Y-27931367D01*
X29486465Y-27893674D01*
X29482000Y-27848339D01*
X29482000Y-26761661D01*
X29486465Y-26716326D01*
X29497899Y-26678633D01*
X29516466Y-26643897D01*
X29541452Y-26613452D01*
X29571897Y-26588466D01*
X29606633Y-26569899D01*
X29644326Y-26558465D01*
X29689661Y-26554000D01*
X30526339Y-26554000D01*
X30571674Y-26558465D01*
G37*
G36*
X33666672Y-26286449D02*
G01*
X33666674Y-26286450D01*
X33666675Y-26286450D01*
X33735103Y-26314793D01*
X33796686Y-26355942D01*
X33849058Y-26408314D01*
X33890207Y-26469897D01*
X33910954Y-26519987D01*
X33918551Y-26538328D01*
X33931004Y-26600933D01*
X33933000Y-26610967D01*
X33933000Y-26685033D01*
X33918550Y-26757675D01*
X33890207Y-26826103D01*
X33849058Y-26887686D01*
X33796686Y-26940058D01*
X33735103Y-26981207D01*
X33666675Y-27009550D01*
X33666674Y-27009550D01*
X33666672Y-27009551D01*
X33594034Y-27024000D01*
X33519966Y-27024000D01*
X33447328Y-27009551D01*
X33447326Y-27009550D01*
X33447325Y-27009550D01*
X33378897Y-26981207D01*
X33317314Y-26940058D01*
X33264942Y-26887686D01*
X33223793Y-26826103D01*
X33195450Y-26757675D01*
X33181000Y-26685033D01*
X33181000Y-26610967D01*
X33182996Y-26600933D01*
X33195449Y-26538328D01*
X33203046Y-26519987D01*
X33223793Y-26469897D01*
X33264942Y-26408314D01*
X33317314Y-26355942D01*
X33378897Y-26314793D01*
X33447325Y-26286450D01*
X33447326Y-26286450D01*
X33447328Y-26286449D01*
X33519966Y-26272000D01*
X33594034Y-26272000D01*
X33666672Y-26286449D01*
G37*
G36*
X39446672Y-26286449D02*
G01*
X39446674Y-26286450D01*
X39446675Y-26286450D01*
X39515103Y-26314793D01*
X39576686Y-26355942D01*
X39629058Y-26408314D01*
X39670207Y-26469897D01*
X39690954Y-26519987D01*
X39698551Y-26538328D01*
X39711004Y-26600933D01*
X39713000Y-26610967D01*
X39713000Y-26685033D01*
X39698550Y-26757675D01*
X39670207Y-26826103D01*
X39629058Y-26887686D01*
X39576686Y-26940058D01*
X39515103Y-26981207D01*
X39446675Y-27009550D01*
X39446674Y-27009550D01*
X39446672Y-27009551D01*
X39374034Y-27024000D01*
X39299966Y-27024000D01*
X39227328Y-27009551D01*
X39227326Y-27009550D01*
X39227325Y-27009550D01*
X39158897Y-26981207D01*
X39097314Y-26940058D01*
X39044942Y-26887686D01*
X39003793Y-26826103D01*
X38975450Y-26757675D01*
X38961000Y-26685033D01*
X38961000Y-26610967D01*
X38962996Y-26600933D01*
X38975449Y-26538328D01*
X38983046Y-26519987D01*
X39003793Y-26469897D01*
X39044942Y-26408314D01*
X39097314Y-26355942D01*
X39158897Y-26314793D01*
X39227325Y-26286450D01*
X39227326Y-26286450D01*
X39227328Y-26286449D01*
X39299966Y-26272000D01*
X39374034Y-26272000D01*
X39446672Y-26286449D01*
G37*
G36*
X24229564Y-24743389D02*
G01*
X24420833Y-24822615D01*
X24420835Y-24822616D01*
X24592973Y-24937635D01*
X24739365Y-25084027D01*
X24854385Y-25256167D01*
X24933611Y-25447436D01*
X24974000Y-25650484D01*
X24974000Y-25857516D01*
X24933611Y-26060564D01*
X24854385Y-26251833D01*
X24854384Y-26251835D01*
X24739365Y-26423973D01*
X24592973Y-26570365D01*
X24420835Y-26685384D01*
X24420834Y-26685385D01*
X24420833Y-26685385D01*
X24229564Y-26764611D01*
X24026516Y-26805000D01*
X23819484Y-26805000D01*
X23616436Y-26764611D01*
X23425167Y-26685385D01*
X23425166Y-26685385D01*
X23425165Y-26685384D01*
X23253027Y-26570365D01*
X23106635Y-26423973D01*
X22991616Y-26251835D01*
X22991615Y-26251833D01*
X22912389Y-26060564D01*
X22872000Y-25857516D01*
X22872000Y-25650484D01*
X22912389Y-25447436D01*
X22991615Y-25256167D01*
X23106635Y-25084027D01*
X23253027Y-24937635D01*
X23425165Y-24822616D01*
X23425167Y-24822615D01*
X23616436Y-24743389D01*
X23819484Y-24703000D01*
X24026516Y-24703000D01*
X24229564Y-24743389D01*
G37*
G36*
X19229564Y-24743389D02*
G01*
X19420833Y-24822615D01*
X19420835Y-24822616D01*
X19592973Y-24937635D01*
X19739365Y-25084027D01*
X19854385Y-25256167D01*
X19933611Y-25447436D01*
X19974000Y-25650484D01*
X19974000Y-25857516D01*
X19933611Y-26060564D01*
X19854385Y-26251833D01*
X19854384Y-26251835D01*
X19739365Y-26423973D01*
X19592973Y-26570365D01*
X19420835Y-26685384D01*
X19420834Y-26685385D01*
X19420833Y-26685385D01*
X19229564Y-26764611D01*
X19026516Y-26805000D01*
X18819484Y-26805000D01*
X18616436Y-26764611D01*
X18425167Y-26685385D01*
X18425166Y-26685385D01*
X18425165Y-26685384D01*
X18253027Y-26570365D01*
X18106635Y-26423973D01*
X17991616Y-26251835D01*
X17991615Y-26251833D01*
X17912389Y-26060564D01*
X17872000Y-25857516D01*
X17872000Y-25650484D01*
X17912389Y-25447436D01*
X17991615Y-25256167D01*
X18106635Y-25084027D01*
X18253027Y-24937635D01*
X18425165Y-24822616D01*
X18425167Y-24822615D01*
X18616436Y-24743389D01*
X18819484Y-24703000D01*
X19026516Y-24703000D01*
X19229564Y-24743389D01*
G37*
G36*
X21729564Y-24743389D02*
G01*
X21920833Y-24822615D01*
X21920835Y-24822616D01*
X22092973Y-24937635D01*
X22239365Y-25084027D01*
X22354385Y-25256167D01*
X22433611Y-25447436D01*
X22474000Y-25650484D01*
X22474000Y-25857516D01*
X22433611Y-26060564D01*
X22354385Y-26251833D01*
X22354384Y-26251835D01*
X22239365Y-26423973D01*
X22092973Y-26570365D01*
X21920835Y-26685384D01*
X21920834Y-26685385D01*
X21920833Y-26685385D01*
X21729564Y-26764611D01*
X21526516Y-26805000D01*
X21319484Y-26805000D01*
X21116436Y-26764611D01*
X20925167Y-26685385D01*
X20925166Y-26685385D01*
X20925165Y-26685384D01*
X20753027Y-26570365D01*
X20606635Y-26423973D01*
X20491616Y-26251835D01*
X20491615Y-26251833D01*
X20412389Y-26060564D01*
X20372000Y-25857516D01*
X20372000Y-25650484D01*
X20412389Y-25447436D01*
X20491615Y-25256167D01*
X20606635Y-25084027D01*
X20753027Y-24937635D01*
X20925165Y-24822616D01*
X20925167Y-24822615D01*
X21116436Y-24743389D01*
X21319484Y-24703000D01*
X21526516Y-24703000D01*
X21729564Y-24743389D01*
G37*
G36*
X28512674Y-24526465D02*
G01*
X28550367Y-24537899D01*
X28585103Y-24556466D01*
X28615548Y-24581452D01*
X28640534Y-24611897D01*
X28659101Y-24646633D01*
X28670535Y-24684326D01*
X28675000Y-24729661D01*
X28675000Y-25816339D01*
X28670535Y-25861674D01*
X28659101Y-25899367D01*
X28640534Y-25934103D01*
X28615548Y-25964548D01*
X28585103Y-25989534D01*
X28550367Y-26008101D01*
X28512674Y-26019535D01*
X28467339Y-26024000D01*
X27630661Y-26024000D01*
X27585326Y-26019535D01*
X27547633Y-26008101D01*
X27512897Y-25989534D01*
X27482452Y-25964548D01*
X27457466Y-25934103D01*
X27438899Y-25899367D01*
X27427465Y-25861674D01*
X27423000Y-25816339D01*
X27423000Y-24729661D01*
X27427465Y-24684326D01*
X27438899Y-24646633D01*
X27457466Y-24611897D01*
X27482452Y-24581452D01*
X27512897Y-24556466D01*
X27547633Y-24537899D01*
X27585326Y-24526465D01*
X27630661Y-24522000D01*
X28467339Y-24522000D01*
X28512674Y-24526465D01*
G37*
G36*
X30562674Y-24526465D02*
G01*
X30600367Y-24537899D01*
X30635103Y-24556466D01*
X30665548Y-24581452D01*
X30690534Y-24611897D01*
X30709101Y-24646633D01*
X30720535Y-24684326D01*
X30725000Y-24729661D01*
X30725000Y-25816339D01*
X30720535Y-25861674D01*
X30709101Y-25899367D01*
X30690534Y-25934103D01*
X30665548Y-25964548D01*
X30635103Y-25989534D01*
X30600367Y-26008101D01*
X30562674Y-26019535D01*
X30517339Y-26024000D01*
X29680661Y-26024000D01*
X29635326Y-26019535D01*
X29597633Y-26008101D01*
X29562897Y-25989534D01*
X29532452Y-25964548D01*
X29507466Y-25934103D01*
X29488899Y-25899367D01*
X29477465Y-25861674D01*
X29473000Y-25816339D01*
X29473000Y-24729661D01*
X29477465Y-24684326D01*
X29488899Y-24646633D01*
X29507466Y-24611897D01*
X29532452Y-24581452D01*
X29562897Y-24556466D01*
X29597633Y-24537899D01*
X29635326Y-24526465D01*
X29680661Y-24522000D01*
X30517339Y-24522000D01*
X30562674Y-24526465D01*
G37*
G36*
X32235015Y-22154973D02*
G01*
X32338879Y-22186479D01*
X32366055Y-22201005D01*
X32434600Y-22237643D01*
X32518501Y-22306499D01*
X32587357Y-22390400D01*
X32623995Y-22458945D01*
X32638521Y-22486121D01*
X32670027Y-22589985D01*
X32678000Y-22670933D01*
X32678000Y-23325067D01*
X32670027Y-23406015D01*
X32638521Y-23509879D01*
X32587356Y-23605600D01*
X32518501Y-23689501D01*
X32449645Y-23746009D01*
X32434599Y-23758357D01*
X32382907Y-23785987D01*
X32338878Y-23809521D01*
X32235014Y-23841027D01*
X32127000Y-23851666D01*
X32018985Y-23841027D01*
X31915121Y-23809521D01*
X31871093Y-23785987D01*
X31819401Y-23758357D01*
X31806643Y-23747887D01*
X31735499Y-23689501D01*
X31666644Y-23605600D01*
X31615479Y-23509878D01*
X31583973Y-23406014D01*
X31576000Y-23325066D01*
X31576000Y-22670933D01*
X31583973Y-22589985D01*
X31615480Y-22486121D01*
X31615482Y-22486118D01*
X31666645Y-22390399D01*
X31735500Y-22306499D01*
X31819401Y-22237643D01*
X31887946Y-22201005D01*
X31915122Y-22186479D01*
X32018986Y-22154973D01*
X32127000Y-22144334D01*
X32235015Y-22154973D01*
G37*
G36*
X40875015Y-22154973D02*
G01*
X40978879Y-22186479D01*
X41006055Y-22201005D01*
X41074600Y-22237643D01*
X41158501Y-22306499D01*
X41227357Y-22390400D01*
X41263995Y-22458945D01*
X41278521Y-22486121D01*
X41310027Y-22589985D01*
X41318000Y-22670933D01*
X41318000Y-23325067D01*
X41310027Y-23406015D01*
X41278521Y-23509879D01*
X41227356Y-23605600D01*
X41158501Y-23689501D01*
X41089645Y-23746009D01*
X41074599Y-23758357D01*
X41022907Y-23785987D01*
X40978878Y-23809521D01*
X40875014Y-23841027D01*
X40767000Y-23851666D01*
X40658985Y-23841027D01*
X40555121Y-23809521D01*
X40511093Y-23785987D01*
X40459401Y-23758357D01*
X40446643Y-23747887D01*
X40375499Y-23689501D01*
X40306644Y-23605600D01*
X40255479Y-23509878D01*
X40223973Y-23406014D01*
X40216000Y-23325066D01*
X40216000Y-22670933D01*
X40223973Y-22589985D01*
X40255480Y-22486121D01*
X40255482Y-22486118D01*
X40306645Y-22390399D01*
X40375500Y-22306499D01*
X40459401Y-22237643D01*
X40527946Y-22201005D01*
X40555122Y-22186479D01*
X40658986Y-22154973D01*
X40767000Y-22144334D01*
X40875015Y-22154973D01*
G37*
M02*
